<?xml version="1.0" encoding="UTF-8"?>
<svg id="Layer_1" xmlns="http://www.w3.org/2000/svg" version="1.1" viewBox="0 0 1784 1769">
  <!-- Generator: Adobe Illustrator 29.3.1, SVG Export Plug-In . SVG Version: 2.1.0 Build 151)  -->
  <defs>
    <style>
      .st0 {
        fill: #fff;
        fill-rule: evenodd;
      }
    </style>
  </defs>
  <rect width="1784.8" height="1769.1"/>
  <path class="st0" d="M0,884.5v884.5l892.2-.2,892.2-.3.3-884.2.2-884.2H0v884.5M.5,885c0,486.5.1,685.5.3,442.2.1-243.2.1-641.3,0-884.5-.1-243.2-.3-44.2-.3,442.2M1046.5,327c.8,1.3-2.6,2-4.6.9-1.1-.6-4.7-.8-8.7-.4-3.7.3-10.1.7-14.3.8s-8.5.8-9.8,1.4c-1.8,1-2.3,1-2.3,0,0-.8-.3-.9-.8-.3-.4.5-1.3,1-2,1.1-2.8.2-3.3.4-2.9,1.2.3.4-.5.9-1.7,1-1.5.1-1.7,0-.9-.6.8-.5-.5-.8-3.2-.7-2.5,0-4.3.4-4,.8.3.4-.2.5-1.1.1-.9-.4-1.6,0-1.6.8,0,1-.2,1-1-.1-.7-1.1-1-1.1-1-.2,0,.7-.5,1-1,.7s-1-.2-1,.3-1.4.7-3.1.4c-2.3-.3-2.9-.1-2.4.8.6.9.3,1-1.2.2-1.1-.6-2.3-.8-2.6-.4-.4.4-1.6.8-2.7,1-1.1.2-2.7,1-3.5,1.8-1.8,1.8-2.8,2-1.8.3.4-.7.3-.9-.3-.5-.6.4-2.8.9-4.9,1.2-2.1.3-4.4,1.4-5.1,2.3-.8,1.1-1.3,1.2-1.3.4,0-.7-.5-1.2-1.1-1.2s-.7.5-.3,1.2c.5.8.2,1-.9.5-.9-.4-2.9-.1-4.4.5-1.5.6-3.4,1.2-4.2,1.3-2.8.4-9.5,2.4-11,3.4-1.9,1.3-.8,1.3,2.5,0,1.9-.7,2.4-.7,1.9.1-.4.6-.1,1.5.5,1.9.8.5,0,.9-1.9,1.2-1.7.3-3.1,0-3.1-.4s-.9-.6-2-.3-2,.2-2-.3c0-1.3-3.6-.3-5,1.3-.6.7-2,1.1-3,.8-1.2-.3-2,0-2,.7s-.7,1-1.5.6c-.8-.3-1.5-.1-1.5.4s.6,1,1.2,1c.7,0,.2.5-1.2,1-1.3.5-2.9.8-3.5.5-.6-.2-.3-.5.7-.5s1.8-.5,1.8-1.1-2.5.1-5.5,1.4c-3,1.3-5.5,2.1-5.5,1.8s-.6.2-1.3,1.2c-.7,1-1.9,1.5-2.5,1.1-.8-.5-.9-.1-.5,1.1.5,1.4.4,1.6-.6.6-1-.9-1.8-.8-3.6.4-1.3.8-2.1,2-1.7,2.6.4.6.2.7-.5.3-.6-.4-1.2-.1-1.2.6,0,1-.2,1-.9,0-.7-1.1-1.3-1.1-3-.2-1.2.6-2.1,1.6-2.1,2.2s-.6.8-1.4.5c-.8-.3-2.5.3-3.8,1.3-1.3,1-2.8,1.9-3.3,2.1-2.3.6-6.1,2.5-6.7,3.5-.4.6-.7.6-.8.1,0-.5-.7-.3-1.5.4-.8.7-1.2,1.7-.8,2.3.4.7,0,.8-.9.4-.9-.4-2.8.3-4.4,1.6-1.5,1.2-2.4,1.5-1.9.7.7-1.2.6-1.3-.5-.2-1.1,1.1-1.2,1.4,0,2.1,1.1.7,1,.9-.3,1.4-1,.4-1.4.2-1-.4.3-.5.2-1-.4-1s-1.3.5-1.6,1c-.3.6-1,.8-1.5.5-.5-.3-1.5.3-2.2,1.3-.7,1-2.7,2.5-4.3,3.3s-2.9,2-2.8,2.6c.1.6-.3.9-1,.7-.7-.3-2.8.5-4.6,1.6-2.5,1.5-3.1,2.4-2.2,3.2,1.6,1.6,1.4,3.1-.2,2.4-.8-.3-1.9,0-2.6.6-1,.9-1.1.9-.6,0,1-1.7,0-1.6-3.8.5-5.3,2.9-6.8,4.4-5.6,5.8.7.9.6,1.4-.6,1.8-.9.3-1.3.2-1-.4.9-1.5-2.1-1.2-3.4.4-.6.7-.8,1.7-.4,2.1.4.4,0,.6-.8.4-1-.2-1.4.3-1.2,1.7.2,1.4,0,1.6-.6.7-1.1-1.6-4.2-.5-4.2,1.4s-.5,1.4-1,1.4-1.2,0-1.5,0c-.3,0-1.5,1-2.8,2.2-1.8,1.7-2.1,2.6-1.3,3.7.8,1.1.7,1.3-.2.7-2.5-1.5-9.3,4.4-8.5,7.4,0,.3-.8.5-2.1.5-1.2,0-2.1.5-1.9,1.2.1.7,0,1.1-.5,1-.4-.1-2.7,1.5-5.1,3.8s-5,4.4-5.9,4.9c-1.3.7-1.3,1-.2,1.7,1,.6.9,1-.6,1.6-2.2.8-5.1,3.4-4.8,4.3.1.3-.5.4-1.4.3-.8-.2-1.3,0-1,.6.3.5-1.4,2.6-3.9,4.7-2.4,2.1-4.2,4.2-3.9,4.7.3.5,0,.9-.7.9s-.9.3,0,1.4c.9,1.1.6,1.3-1.6,1.1-2.6-.3-2.7-.2-.8,1.1,1.9,1.4,1.9,1.4,0,1.4s-5.8,3.4-4.9,4.9c.4.6,0,1.1-.7,1.1s-3.1,1.9-5.3,4.2c-2.2,2.3-3.4,3.9-2.7,3.4.7-.4.3.8-.8,2.8-2.3,4-3.6,4.8-1.9,1.3.8-1.7.5-1.5-1.4.7-1.4,1.6-2.3,3.3-2.1,3.6.2.4-.7,1.8-2,3-1.7,1.6-2.1,2.7-1.4,3.5.7.8.6,1.4-.2,1.9-.8.5-.9.3-.4-.5.5-.9.3-1.1-.6-.8-.8.3-1.4,1-1.4,1.7s-.8,1.8-1.7,2.5c-1,.7-1.4,1.6-1.1,1.9.4.4,0,.7-.6.7s-1.1.8-.7,2.5c.5,2,.3,2.4-1,1.9-1.2-.4-1.5,0-1.3,1.3.2,1.4-.2,1.8-1.6,1.6-1.4-.2-1.7.1-1.3,1.2.4,1,0,1.6-.8,1.6-1.3,0-2.5,2.3-3.2,5.9-.1.8-.8,1.7-1.4,2.1-.7.4-.9,1.3-.4,2,.5.8.4,1-.3.6-1.4-.9-4.8,4.3-4.4,6.7.2,1.1-.1,1.6-.8,1.2-1.5-.9-1.4.7.2,2.4.7.7.8,1.1.2.8-1.3-.7-3.2.4-3.6,2.2-.2.8-.9,2.1-1.6,3s-1.1,1.9-1,2.3c.1.4-.6,1.4-1.7,2.2-1.9,1.4-1.9,1.5-.1,1.3,1,0,2.1.5,2.4,1.2.3,1,0,1.2-1.2.8-1.1-.4-1.5-.3-1,.5.5.8.2.9-1,.5-1.1-.4-1.5-.3-1.1.4.4.6-.5,2.8-1.9,5-1.4,2.2-2.6,4.4-2.6,5s-.5.8-1.1.4c-.8-.5-.8-.1,0,1.3.8,1.6.6,2.3-1.1,3.7-1.8,1.6-1.9,1.9-.6,2.7,1.1.6,1.4,1.9,1.1,4.6-.3,2.1-.7,4-1,4.3s-.3-.9,0-2.6c.3-1.9-.1-3.6-1-4.4-1.3-1.2-1.4-1.1-.9.8.3,1.2.2,2-.3,1.7-.5-.3-1.3.4-1.9,1.5-.7,1.4-.7,2,0,2s1-.5,1-1.2.3-.9.7-.5c.4.4-.3,1.6-1.5,2.7-2.4,2.2-2.9,3.4-.9,2.4.7-.3.5,0-.4.7-1.1.9-1.4,1.8-.8,2.8,1.2,1.9,1.2,2.9-.1,2.9s-.8-.4-.5-.9c.3-.5.1-1.2-.4-1.6-1.1-.7-1.3.5-.5,2.8.3.9,1.3,1.3,2.5,1,1.3-.4,1.9,0,1.9,1.2s-.4,1.4-1.2.9c-1.6-1-5.4-1.6-4.5-.7.4.4,0,1.3-.9,2.1-1.3,1.3-1.3,1.7,0,3.2,1.4,1.6,1.3,1.8-1,2.9-2.5,1.1-2.8,2.1-2.9,9.4,0,1.5-.5,2.4-1,2.1-.6-.3-.7,0-.4,1,.4,1.1.2,1.4-.8,1.1-1.5-.6-1.6,2,0,4.4.5.8.2,1.2-.7,1.2s-1.3.6-.9,1.7c.4,1.1.3,1.4-.5.9-.7-.4-1.2-.1-1.3.6-.2,2.5-.7,5.3-1.2,8.1-.3,1.5-.1,2.8.4,2.8s.9.5.9,1.1-.7.8-1.5.5c-1.1-.4-1.5.1-1.5,1.9s-.3,2.5-.8,2.5c-1.1,0-.9,6,.2,6,.5,0,.2.7-.8,1.4-1,.8-1.9,2.7-1.9,4.4,0,1.7-.4,2.9-.7,2.7-.4-.2-.6,1.7-.4,4.3.1,2.6-.3,5.2-.8,5.9-.8.9-.5,1.3.8,1.3,1.6,0,1.5.2-.4,1-3.2,1.3-2.8,2.3.7,1.8,1.6-.2,2.7,0,2.4.4-.3.4-1.4.8-2.5.8-2.3,0-2.8,1-3.4,6.5-.6,5.1-.6,5.4-.2,9.1.2,1.8,0,3-.5,2.7-.4-.3-.8,0-.8.5s.6,1.2,1.2,1.5c.9.4.9.8.2,1.3-.6.5-1,2.2-.9,3.8.1,1.7-.2,3.5-.7,4.1-.5.7-.5,2.2,0,3.8.5,1.4.7,2.6.2,2.6s-.8,1.1-1,2.5c-.1,1.4.3,2.4.9,2.2,1.8-.4,1.9,3.6.2,5.5-1.4,1.5-1.2,2.1.7,2,.3,0,.6,1.1.7,2.5.3,4.3,2.4,7.3,5.3,7.3,1.7,0,2.1.3,1.3.8-1,.6-.7,1.3.9,2.7,1.2,1.1,1.8,1.3,1.4.5-.6-.9-.4-1.2.6-.9.8.3,1.4,1.1,1.4,1.8s2.2,2.8,5,4.7c2.8,1.8,6.3,4.6,7.9,6.1,2.8,2.6,7.4,4.4,6.1,2.3-.3-.6-.4-1,0-1s1,1,1.7,2.1c.8,1.5.8,1.9,0,1.4-.6-.4-1.1-.5-1.1-.3s1.7,1.6,3.9,3c2.1,1.4,5.1,3.7,6.7,5.1,1.5,1.4,3,2.3,3.3,2,.3-.3,0-1-.9-1.5s-1-.9-.3-.9c1.5,0,3.5,2.5,2.6,3.4s.1.4,1.2,0c1.5-.6,1.8-.4,1.3.9-.7,1.8,2.7,4.4,3.7,2.8.3-.5,0-1.1-.7-1.4-.7-.2-.2-.3,1.1,0,1.3.2,2.1,0,1.8-.5-.3-.5.2-.9,1.1-.9,1.3,0,1.3.3-.3,1.6-2.3,1.9-2.5,4.3-.4,4.8,1.2.3,1.2.2.2-.5-1.1-.8-1-1.1.2-1.5.9-.3,1.5-.3,1.5.1-.3,2.1.3,3.2,1.8,3.2s1.4.3,1,.6c-.3.3,0,1.2.8,2,1.7,1.7,2.9,1.8,1.9.3-.4-.7-.2-.9.7-.6.8.3,1.3,1,1.1,1.6-.4,1.8,8.1,7.5,8.7,5.9.3-.7,1.4-1.4,2.4-1.6,1.3-.2,1.6,0,1.1.9-.5.9-.2,1,1,.5,1.5-.6,1.6-.4.6.7-.8,1-.9,2.2-.2,4,1.2,3,2.1,3.5,1.4.7-.3-1.1,0-2.7.6-3.8,1-1.6,1.1-1.6.5.4-.3,1.2-.2,2.2.3,2.2s.9.7.8,1.6c0,.9.5,1.9,1.2,2.1,1,.3,1.1,0,.6-.9-.7-1.1-.5-1.2.7-.1.8.7,1.9.9,2.4.5.5-.4.5-.2,0,.5-.4.7-.2,1.2.4,1.2s.8.5.5,1,0,1,.6,1,.9.3.5.7c-.4.4-1.5-.3-2.5-1.6-1.4-1.9-2-2.1-2.6-1-.4.8-.5,1.1,0,.7.4-.4,2.2.8,3.9,2.6,1.8,1.8,4.7,3.6,6.5,4,1.8.4,3,1.1,2.8,1.5-.3.4.6,1.8,2,3.1,1.4,1.3,2.5,2.1,2.5,1.7s1.4.8,3.2,2.4c1.9,1.8,3.8,2.7,4.7,2.3.9-.3,1.2-.3.8.1-1.2,1.2,3.3,5.3,5.1,4.6,1-.4,1.3-.2.8.6-.4.6-.3,1.2.3,1.2s1.7.3,2.5.6c1.2.4,1.4,0,1.1-1.6-.2-1.2-.1-1.9.3-1.5.4.4.7,1,.7,1.4,0,.4.6,2.1,1.4,3.9,1.3,3,1.5,3.1,2.8,1.5,1.4-1.6,1.4-1.6.9,0-.5,1.7,5.2,8.3,6.3,7.2.3-.3-.8-1.5-2.4-2.8-2.2-1.7-2.6-2.5-1.6-3.1.9-.5,1.1-.4.6.3-.4.7.3,1.6,1.8,2.3,1.5.7,2.6,2,2.6,3.3q0,2.1,1.6,0c1.1-1.3,1.4-1.5,1.1-.4-.3.9-.1,2.2.3,3,.7,1.2,1.2,1.2,2.9.2,1.1-.7,2-.8,2-.3s.3,1.6.6,2.5c.5,1.2.2,1.4-1.2.9-1.6-.6-1.7-.5-.4.9.8.9,1.8,1.4,2.1,1.2.4-.2.9.3,1.3,1.2.5,1.4.9,1.4,2.3.2.9-.8,1.4-.8,1-.2-.9,1.4,4.1,5.6,5.6,4.7.6-.4.8-.2.4.3-.3.5.2,1.6,1.1,2.4,2.3,2,3.4,2.3,4.1,1,.4-.6,1.1-.3,1.8.9,1,1.7,1,1.8-.5,1.3-1-.3,1.2,1.6,4.8,4.3s7.3,5.6,8.3,6.4c1,.8,2.2,1.6,2.8,1.6.5,0,1.4.2,1.9.2.5,0,.7.8.4,1.6-.4,1.1-.1,1.3,1,.9.9-.3,1.3-1.1,1-1.7-.4-.6-.2-.8.6-.3.8.5.9,1.1.2,1.8-1.5,1.5,4.3,6.1,6.7,5.3,1.1-.3,2.3,0,2.7.6.5.7.3.9-.3.5-.6-.4-1.4-.2-1.7.3-.3.6,0,1,.7,1s2.7,1.3,4.2,3,3.5,3,4.2,3,1.6.7,2,1.6c.5,1.2,1.5,1.5,4.4,1,2.3-.4,4.1-.2,4.5.5.4.6,0,1-1.2.9-3.3-.3-4.5,0-3.8,1.1.4.6,1.3.8,2.1.5.9-.4,1.2-.1.7.6-.5.8,0,1,1.5.6,1.8-.5,2-.3,1.1.8-.9,1-.7,1.3.7,1,1-.2,2.6.4,3.5,1.2,1.5,1.3,2,1.3,3.4.1,1.1-.9,1.5-1,1-.1-1,1.7.2,1.6,1.9-.2,1.5-1.5,2-6,.5-5.1-.5.3-1.2-.1-1.5-.9-.3-.8,0-1.4.6-1.2.6.1,1.3-.6,1.6-1.7.3-1.5,0-1.8-1.4-1.2-1.8.6-1.8.6,0-.7,1.6-1.2,1.8-3,1.6-15.8-.1-8.1-.7-15-1.3-15.8-.8-1.1-.7-1.3.2-.7.9.5,1.2-.1,1.2-2.3s-.7-3.4-1.8-4c-1.6-.9-1.6-1,0-1,1.2,0,1.6-1,1.6-3.5s-.4-3.3-1.1-2.8c-.7.4-.7.2-.2-.8,1.4-2.2,1.5-4.9.3-4.9s-.8-.4,0-1.3c1.4-1.7,1.1-27.7-.4-27.7-.7,0-.7-.3,0-.8,1.6-1.2,1.8-9.4.3-10.4-1-.6-1-.8,0-.8.8,0,1.2-1.6,1.2-4.5s-.4-4.5-1.2-4.5c-.9,0-.9-.2,0-.8.6-.4,1.2-2.5,1.2-4.7s-.5-4.3-1.2-4.7c-.8-.5-.8-.7,0-.8.7,0,1.2-1,1.2-2.3s-.6-2.9-1.2-3.6c-1-1.1-1-1.2,0-.6.9.5,1.2-.6,1.2-4.4s-.4-5.1-1.2-5.1c-.8,0-.8-.3.2-1,1.1-.7,1.2-1,.2-1-.8,0-1.1-.7-.7-1.9,1.3-4.2,1.4-6.5.3-7.3-1-.6-1-.8,0-.8.8,0,1.2-1.5,1.2-4.1s-.4-3.8-1.1-3.4c-.7.4-.7-.1.1-1.6,1.4-2.6,2-14.1.8-13.3-1.2.7-1,.1.8-3.5.9-1.7,1.3-3.6.9-4.2s-.1-1,.4-1,1.1-.8,1-1.8c0-1.5-.2-1.5-1-.2s-1,1.2-1-.2c0-1,.7-1.8,1.7-1.8,1.5,0,1.5-.2.2-1-1.2-.8-1.3-1.1-.2-1.8.7-.5,1.3-1.2,1.3-1.6s-.6-1.2-1.3-1.6c-1-.6-1-.9,0-.9.7,0,1.2-.9,1.2-2s.5-2.2,1-2.6c.6-.3.8-1,.4-1.6-.3-.5,0-.9.5-.9,1.2,0,1-3.7-.4-5.9-.6-1-.5-1.2.4-.6,1,.6,1.1.3.6-1.1-.8-2.1-.9-2.4-.7-4.1,0-.7,1-.9,2.4-.6,1.8.4,2,.3,1-.8-1.4-1.5-1.7-3.3-.4-2.5.9.6,3.1-3.6,3.1-6s.5-1.5,1.2-1.5.9-.3.5-.7,0-1.3.6-2.2c.7-.8.8-1.2.2-.9-1.6.9-1.1-3.1.6-4.5,1.2-1,1.2-1,0,.5-.7,1-1,1.8-.6,1.8,1.6,0,3.4-3.6,3.5-6.8,0-1.8.5-3.2,1.1-3.2s.7.6.3,1.2c-.4.7.2.4,1.4-.7,1.7-1.5,1.9-2.2,1-3.2-.7-.9-.7-1.3,0-1.3s1.5-1.3,2.1-3c.6-1.7,1.3-3,1.7-3s.3.6,0,1.2c-.3.7,0,.4.7-.6s2.7-3.9,4.5-6.3c1.8-2.4,3.2-4.7,3.2-5.2s1.3-2.2,2.9-3.9c1.6-1.7,2.7-3.3,2.4-3.6-.3-.3.2-.9,1.1-1.2,1.6-.6,1.6-.8-.1-2.8-1.4-1.6-1.4-1.8-.2-.9,2.8,2.2,7-1.1,5.2-4.1-.4-.6.2-.5,1.2.3s1.6,1.1,1.2.6c-1-1.2,1.2-3.7,2.5-2.9.6.4.7.2.3-.5-.4-.7,0-1.2.8-1.2s1.6-.5,1.6-1.1.4-.8.9-.5c.5.3,1.2-.8,1.6-2.6.4-2,1-2.7,1.5-1.9.5.9,1,.9,1.5.1.4-.6.3-1.7,0-2.4-.5-.8-.2-.8.9.1,1.4,1.2,1.7,1.2,1.7,0s1.2-2,2.6-2.6c1.8-.8,2.4-1.7,2-2.8-.4-1.1-.2-1.4.9-1,.8.3,1.7.1,2.1-.4s.9-.8,1.4-.5c.4.3,2.6-1.3,4.9-3.5,2.3-2.2,4.8-4,5.7-4s1.3-.4,1-.9.2-.8,1.2-.6c1.7.3,5.5-1.7,8.1-4.2.7-.7,2.6-1.3,4.1-1.3s3.4-.7,4.1-1.5c.7-.8,1.5-1.3,1.8-1,.3.3,1.2-.3,2.1-1.3.9-1,4.5-2.4,8-3.2,3.5-.8,6.6-1.9,6.8-2.5.2-.6,1.6-1,3.1-.8,1.5.2,3.2-.1,3.8-.6.6-.5,3.5-1.2,6.5-1.4,9.8-.9,13.9-1.7,13.4-2.5-.3-.4,2.8-.8,6.8-.8,13.6,0,17.2-.4,18-1.5.5-.9.7-.8.8,0,0,.7,1.3,1.2,3.3,1.2s3.9-.6,4.6-1.2c1.1-1,1.2-1,.6,0-.5.8,0,1.2,1.3,1.2s2.2.6,2.6,1.2c.4.8.8.9,1.1.2.3-.6,2.1-.9,4-.9,2,0,3.5-.3,3.5-1,0-.7.5-.5,1.2.4.7.8,2.2,1.5,3.4,1.4s2.1.3,2,.9c-.1.5.4,1.2,1.2,1.5.9.3,1.1,0,.7-.6-.4-.6-.2-1.1.4-1.1s1.1.5,1.1,1.1.4.8,1.4,0c1.1-.9,2.1-.8,4.6.5,1.7.9,4.1,1.9,5.3,2.2,6.6,1.6,6.9,1.6,6.2.5-.9-1.5,2.3-.4,4.7,1.7,1.1,1,1.8,1.1,1.8.3s.4-1.2,1-1.2.7.8.3,1.8c-.6,1.6-.5,1.6,1.2.2,1.1-.9,1.6-1,1.1-.2-.9,1.6.6,1.6,2.1.1.8-.8,1.8-.4,3.7,1.5,1.4,1.4,3.4,2.6,4.5,2.6s2.4.6,3,1.4c1,1.2,5.3,2.7,7.8,2.7.4,0,1.1.6,1.6,1.4.4.8,1.6,1.4,2.5,1.4s2.2.5,2.8,1.1c.6.6,1.7,1.2,2.5,1.3.8.2,2.7.8,4.2,1.4,1.6.6,3.3.9,3.9.5.6-.4.8-.2.4.5-.4.6-.2,1.2.4,1.2s.9.4.6.8c-.3.5,2.1,2.1,5.2,3.7,3.1,1.6,6.8,3.9,8.1,5.2s3.1,2.1,3.9,1.8c1.2-.4,1.2-.3.3.8-.9,1.1-.8,1.5.4,2,.9.3,2,.4,2.5.1.5-.3,1.1,0,1.5.5s1.2.7,1.8.3c.8-.5.7-.2-.1.9-1.1,1.3-.9,1.9,1.4,3.7,1.5,1.1,3.1,1.8,3.7,1.4.6-.4.7-.2.4.4-.4.6.3,1.8,1.6,2.7,1.2.9,1.9,1.6,1.6,1.6s.3,1,1.5,2.3c1.2,1.3,2.8,2.1,3.5,1.9.7-.2,1.2.5,1.2,1.8s.4,1.9,1,1.6c.6-.4.7,0,.4.9-.8,2.1,2.2,3.1,4.3,1.4,1.5-1.2,1.5-1.1.5.8-1.9,3.5-1.5,5.3,1.1,5.1,1.4-.2,2.1.2,2,1.1-.2.7.7,3.6,2,6.3,2,4.4,2.5,4.9,4.8,4.4,1.9-.4,2.2-.3,1,.4-.8.6-1.1,1-.5,1s.4.4-.4.9c-.8.5-1.1,1.4-.7,2,.4.6,1.2.8,1.8.5.6-.4.8-.2.4.5-.4.6-.3,1.2.3,1.2s.8.6.5,1.4c-.3.8.3,1.6,1.5,1.9,1.1.3,2.1,1.1,2.1,1.8s-.3.9-1.5,0c-1.9-1.6-1.9-1,0,2.6.8,1.5,1.3,3,1.1,3.4-.2.3.3,1.2,1.1,1.9,1.2,1.1,1.4.9,1.4-.8s.4-1.8,1-1.5,1,1.8,1,3.2-.4,2.4-1.5,2c-.8-.3-1.5-.1-1.5.4s.5,1,1.2,1,.9.3.5.6c-.3.3,0,2.2.8,4.1.8,1.9,1.5,4.8,1.5,6.3s.4,3.1.9,3.4c.5.3,1.2,2,1.6,3.8.4,1.8.9,3.9,1.2,4.8.2.8.4,3.6.4,6.2,0,3.1.4,4.8,1.2,4.8.9,0,.8.3-.1.9-.9.5-1.1,1.4-.5,2.2.5.7,1,2,1.2,2.9.6,2.5.5,92.2,0,96.2-.3,2.2-.1,3.8.5,3.8s.6.5.2,1.2c-.9,1.4-.8,24.8.2,28.9.5,2.4.3,2.8-1,2.2-1.3-.5-1.5-.1-1.1,2,.3,1.4.8,3.1,1.1,3.6.3.6.2,1-.4,1s-1,1.7-1,3.8c0,2.8.3,3.3.8,1.8.7-1.8.8-1.8,1.4.5.4,1.4.2,2.7-.5,3.1-.6.4-1.3,3-1.5,5.9-.4,5-.3,5.2,1.4,3.9,1.7-1.3,1.7-1.3,0,.7-2,2.4-2.4,11.3-.7,14.6.8,1.5.8,1.9,0,1.4-.6-.4-1.1-.2-1.1.4s.7,1.4,1.5,1.7c.8.3,1.5,1,1.5,1.4s-.7.6-1.5.3c-1.3-.5-1.3-.1-.5,2,.6,1.7.6,2.6,0,2.6s-1,.7-1,1.5.7,1.5,1.6,1.5c1.3,0,1.4.3.4,1.5-1.6,1.9-2.2,12.5-.9,14.1.7.8.6,1.4,0,1.8-.6.4-1,2.3-1,4.2,0,3.1.2,3.4,1.5,2.3,1.2-1,1.5-1,1.5.4s-.7,1.6-1.6,1.6c-1.3,0-1.5,1.1-1.2,6.7.2,3.9.9,6.9,1.6,7.1,1.7.6,1.4,2.2-.3,2.2s-1.8,9.8.4,12.3c1.4,1.6,1.4,1.7,0,1.2-1.5-.6-1.6,2.5-1.6,34,0,26.2.3,34.4,1.2,33.9.8-.5.8-.2,0,.8-.9,1.1-1.2,9.4-1.2,32.9,0,22.5.3,31,1.1,29.9.8-1.2.9-1.1.2.5-.5,1.1-1,12-1.1,24.2-.3,19.6-.1,22.2,1.2,22.2s1.6.5,1.6,1.1-.7.9-1.5.5c-1.3-.5-1.4,9.5-1.4,75.9,0,52.7.4,76.4,1.1,76.2.6-.1,1.3.3,1.5,1,.3.7-.2,1.2-1.1,1.2-1.3,0-1.5,3.6-1.5,28,0,23.5.2,28,1.4,28,1.8,0,1.8.8,0,2.6-1,1-1.4,3.4-1.4,7.1,0,5.1.2,5.5,1.5,3.8.8-1,1.4-1.4,1.4-.8s-.6,1.7-1.4,2.5c-1.7,1.7-2.3,22.8-.6,22.8s.8.6,0,1.9c-1.3,2.5-1.3,11.8,0,12.6.6.3.7,1.2.2,1.8-.4.7-.8,9.2-.8,18.9,0,15.9.2,17.7,1.7,17.8.9,0,2.5.3,3.4.7,1.3.5,1.5.3.9-.6-.6-1-.4-1.1,1-.3,2.3,1.3,9.7.3,10.8-1.4.6-1,2.1-1.2,5.4-.7,4,.6,4.6.4,4-1-.5-1.2,0-1.7,1.3-1.7,2.2,0,2.7,1.6.7,2.3-.7.2,1.1.4,3.9.3s5.5-.4,5.9-.9c.4-.4,1.9-.8,3.3-.8,2.6,0,7.5-1.4,12.7-3.6,1.7-.7,4.9-1.4,7.3-1.5,2.4-.1,4.1-.7,3.9-1.3-.2-.6-1.1-1.1-1.9-1.1-.9,0-1.8-.3-2.1-.6-.3-.3.8-.6,2.4-.6s2.7.3,2.5.7c-1.1,1.8,2.3,1.3,6.4-.8,2.4-1.3,5.1-2.1,5.8-1.8.8.3,2.3-.4,3.4-1.4s3.1-2,4.4-2c2.7,0,4.3-1.5,2.3-2.4-.7-.3-.1-.4,1.2-.2,2.5.3,9.3-2.6,10.5-4.4.4-.6,1.1-.8,1.6-.5,1,.6,1.3-.8.3-1.8s-3.5.3-2.9,1.3c.3.5,0,1.1-.4,1.4-.5.3-.8-.2-.7-1,.4-2.6,3.2-3.6,5-1.8.9.9,1.6,1.1,1.6.4s.4-.9.9-.6c.5.3,1.8-.6,2.9-2,1.1-1.4,3.4-3,5.1-3.6,1.9-.7,2.8-1.5,2.4-2.2-.4-.6,0-.5,1,.2,1.5,1.2,1.6,1.2,1.1-.1-.4-1.1,0-1.5,1.5-1.4,1.1,0,2-.3,2-.8,0-.5,1.9-1.9,4.3-3,2.7-1.3,4.3-2.7,4.2-3.7,0-1,.4-1.4,1.2-1.1.8.3,1.6-.2,2-1.1.3-.9,1-1.3,1.5-1s.9.2.8-.3c-.3-1.9.3-5.7.8-4.6.3.7,1.2,1.2,2,1.2,2.4,0,7.4-4.2,7.4-6.3s.5-1.7,1.5-1.4c2.3.9,7.4-4,7.1-6.8-.2-1.7.1-2.2,1.1-1.9.7.3,1.1,1,.7,1.6-.4.6-.2.8.5.4.6-.4.8-1.5.5-2.4-.3-.9-.3-1.4.2-1,1,.9,4.5-.9,4.5-2.4s.8-1.8,1.8-2.5c1-.8,1.3-1.2.7-.9-.6.3-1.1-.1-1.1-.9s.4-1.2.8-.9c.5.3.8,0,.8-.6s.4-.9.9-.6c1.1.7,7.3-6.2,6.6-7.4-.3-.5.2-1.4,1-2.1s1.3-1.6,1-2c-.3-.5,0-1.1.7-1.5.7-.5.9-.3.5.4-1.4,2.3,1.3,1.1,3.4-1.5,1.4-1.8,1.8-3,1.1-3.7-1.6-1.6-1.2-2.6.7-1.9,1.5.6,1.6.5.4-1.1-1.2-1.5-1.2-1.6.1-1.1,1.7.7,4.8-2,4.8-4.1s.5-1.4,1.1-1.4c.9,0,3.9-5.8,3.9-7.5s-1.2.2-2.8,1.1q-2.7,1.7-.8-.2c1.1-1.1,2.8-2.8,3.8-3.9q1.8-2,.7.2c-.7,1.3-.7,2.2-.1,2.2.9,0,2.7-5.6,2.3-7.2,0-.4.5-1.2,1.3-1.8,1.6-1.3.9-4.3-.8-3.4-.6.4-.6,0,.1-.7.7-.8,2-1.4,2.9-1.4.9,0,2-.7,2.4-1.5,1.1-2,2.1-5.5,1.8-5.6-.2,0,.5-1,1.4-2.1,1-1.1,1.5-2.2,1.2-2.5-.3-.3.1-1.7,1-3,.9-1.3,1.3-3.1,1-4-.3-.8,0-1.9.6-2.3.8-.5,1-.3.4.6-.5.9-.4,1.1.4.6.6-.4.9-1.2.6-1.7-.3-.5,0-2,.8-3.2.8-1.2,1.3-4,1.1-6.2-.2-2.7,0-3.5.6-2.6.7,1.1,1.1.8,1.6-1.5.4-1.6.7-3.7.6-4.7s.3-1.8.8-1.8.9-.5.9-1.1-.4-.8-1-.4-1,.1-1-.4.4-1.1,1-1.1.9-.3.9-.8c-.3-2.1.2-4.3,1-3.8.9.5,2-8.1,2.4-18.4.1-3,.7-5.8,1.2-6.2.6-.4.4-.7-.5-.8-1.2,0-1.3-.2-.1-.9.8-.5,1.5-3.1,1.7-6.5.3-4.7,0-5.6-1.4-5.6-1.5,0-1.5-.1-.2-1,.8-.5,1.6-1.9,1.6-3,0-1.1-.3-1.8-.8-1.5-.5.3-.9.2-.9-.3,0-.4-.2-1.8-.3-3.1-.1-1.3.2-2.6.7-2.9.6-.3.7-.1.3.5-.4.6-.2,1.2.3,1.2,1.7,0,1.2-1.8-.7-3-1.6-1.1-1.6-1.1,0-.6,1.6.5,1.8,0,1.6-4.7-.1-2.9-.7-5.6-1.3-6-.7-.5-.7-.7.2-.8.7,0,1.2-1,1.2-2.3,0-1.6-.3-1.9-.9-.9-.7,1.1-1,1-1.5-.3-.4-.9,0-1.8.8-2.2,1.1-.4,1.4-3.6,1.5-14.9,0-13,0-14.4-1.7-14.8-1.5-.4-1.5-.5-.1-.6,1.5-.1,1.7-4,1.8-44.6,0-29.5-.2-44.5-.9-44.5s-1-.5-1-1.1.4-.8.9-.5c.5.3.9-8.4,1-21.4,0-19.8-.1-22-1.7-22.4-1.6-.4-1.6-.5,0-.6,1.5-.1,1.7-2.1,1.8-18.1,0-13-.2-18-1-18s-.9-.4,0-1.3c1.4-1.6,1.4-92.4,0-93.3-.5-.3-.9-1.1-.9-1.7,0-.7.4-.6,1,.3.8,1.2,1,1,1-.9,0-1.3-.8-3-1.7-3.8-1.4-1.1-1.4-1.2-.2-.8,1.2.4,1.6-.2,1.6-2.5s-.4-3-.8-3-.8-.7-.8-1.6.4-1.3,1-.9,1,.1,1-.4-.6-1.1-1.2-1.1c-.9,0-.9-.2-.1-.8,1.5-1,1.5-21.2,0-21.2-.8,0-.8-.2,0-.8,1.4-.9,1.4-16.2,0-16.2-.6,0-.5-.3.1-.8,1.5-1,1.4-85.4-.2-85.9-.6-.2-.9-11.2-.8-30.8.1-16.9-.1-30.5-.6-30.5s-.9-5.1-1-11.2c0-6.5-.5-11.4-1.1-11.6-.5-.2-1-1.4-1-2.8s-.4-2.2-1-1.9c-.6.3-1,.1-1-.4s.4-1.1.9-1.1.8-1.9.6-4.2c-.3-6.1-.3-6.1-2.2-4.6-1.6,1.3-1.6,1.2-.3-.5,1.7-2.1,1.5-7.6-.3-9.1-.7-.5-1.1-2.8-1-5,.2-4.4-1.3-10.1-3.4-12.6-.9-1.1-1-1.8-.3-2,.7-.2.3-1.8-1-4.2-1.1-2.1-1.8-4.5-1.6-5.2.3-.9,0-1.1-1.2-.7-1.4.5-1.5.3-.4-.8,1.4-1.5,1.7-3.4.5-2.6-.4.3-.6-1.3-.4-3.4.2-2.2,0-3.9-.6-3.9-1.2,0-3.4-5.4-3.6-9.2-.1-1.5-1-3.9-2-5.5-1-1.5-2-4.1-2.2-5.7-.5-4.1-4.7-11.2-6.4-10.9-1.1.3-1.2,0-.2-1,1.6-1.7,1.6-3.4,0-2.1-1,.8-1.2.5-1.1-1.6.2-3.9-1.4-6.5-3.7-5.9-1.6.4-1.7.2-.9-1.4.8-1.4.7-1.9-.3-1.9-.9,0-.8-.3.2-1,1-.6,1.1-1,.2-1-.7,0-1.1-.4-1-.8.4-1.2-6.6-15.2-7.6-15.2-.5,0-.3.7.5,1.7,1.2,1.5,1,1.4-1.4-.1-3-1.9-3.6-2.8-1.4-2,2.9,1.1,1.2-3.8-1.9-5.2-1.7-.8-2.2-1.2-1.3-1,1.2.3,1.5,0,1.1-1-.3-.8-1-1.4-1.5-1.4s-.7-.5-.3-1-.1-1-1-1-1.5.6-1.2,1.3c.3.8-.3,1.3-1.4,1.3-1.7,0-1.7-.2.3-2.3l2.2-2.3-2.2-3c-1.2-1.6-2.2-3.7-2.2-4.5s-.7-1.5-1.8-1.3c-1.2.2-1.7-.3-1.4-1.6.2-1-.1-1.6-.6-1.3-.5.3-1.3-.6-1.6-2.1-.6-2.5-3.6-6.2-5-6.2s-.3.8,0,1.8c.5,1.7.5,1.7-.9,0-.8-1-1.8-1.8-2.2-1.8s-.4.8,0,1.8c.5,1.3.4,1.4-.4.7-1.2-1.2-.3-4.7,1-3.9.4.3,1-.1,1.3-.9.3-.8-.5-2.1-1.9-3-1.3-.9-2.7-2.6-3-3.9-.3-1.3-1.6-2.8-2.8-3.3-1.2-.5-1.5-.8-.7-.6,1,.2.9-.2-.4-1.7-1-1.1-2.1-1.8-2.3-1.6-.2.2-1.4-1.4-2.6-3.7-2.1-4-4.6-6.1-4.6-3.8s.4.9.9.6c.5-.3,1.2.2,1.5,1.1.6,1.5.4,1.5-1.6.1-1.2-.8-2.2-2.5-2.2-3.6,0-1.2-.2-2.1-.5-2.1-1,0-6.1-4.7-5.6-5.2.3-.3-.7-1.6-2.2-2.9-1.5-1.3-2.4-2-2.1-1.4.7,1.3-3,1.7-3.8.4-.3-.5-.8-1.9-1-3.1-.2-1.2-1.1-2.9-1.9-3.8-.8-.9-1.2-2.1-.8-2.5.4-.5.2-.5-.5,0-.7.4-2,0-3-1.1-.9-1-1.3-1.2-.7-.3.9,1.3.8,1.4-.7.2-.9-.7-1.7-1.6-1.6-2,.3-2-.3-3.2-1.7-3.2s-1.5-.7-1.5-1.6c0-1.4-.1-1.4-1.6,0-.9.9-1.9,1.6-2.2,1.6s0-.5.6-1.2c1.7-1.7,1.5-2.8-.5-2.1-1.1.4-1.4.3-.9-.6.9-1.4-1.2-4.4-2.5-3.6-.5.3-.9-.1-.9-.9,0-1.9-2.5-2.8-3.9-1.4-.8.8-1,.5-.7-1.1.3-1.5-.2-2.4-1.3-2.8-.9-.3-2.6-1.3-3.6-2.2-1.2-1-1.6-1.1-1.1-.2.6,1.1.4,1.1-1.3.2-1.2-.6-2.1-1.4-2.1-1.7s.4-.2,1,0c.5.3.7,0,.5-.8-.7-1.9-3.4-1.8-3.5.2,0,2.3-3-1.7-3-4.1s-1.1-2.3-3.2-1.9c-.4,0-.7-.2-.6-.6.3-1.9-.2-3.3-1-2.8-.5.3-1.7.3-2.6,0-1.3-.5-1.4-.8-.3-1.5,1-.7,1-.8-.3-.9-.9,0-2.4-.9-3.4-2-1.7-1.9-1.9-1.9-3.8-.2-1.4,1.2-1.7,1.3-1.1.3,1.2-2,1.5-4.1.5-3.5-.4.3-1.1-.2-1.4-1.1-.4-1-1.3-1.3-2.6-.9-1.4.4-2,.2-2-.8,0-1.5-4.1-4.7-5.9-4.7s-2.2-1.1-3.7-2.5c-1.5-1.4-3.1-2.2-3.6-1.9-.5.3-.9,0-.9-.6s-.4-.9-1.5,0c-1.3,1.1-1.4,1-.9-.3.4-1.2-.2-1.8-2.2-2.3-1.6-.4-3.4-1.2-4.2-1.7-.7-.6-2-1.2-2.9-1.3-.9-.1-1.9-.8-2.3-1.4-.4-.7-1.6-.9-2.6-.6-1.8.6-1.8.6,0-.7,1.6-1.2,1.6-1.5.2-2-.9-.3-1.3-.2-1,.3.3.5,0,1.1-.8,1.4-1.5.6-3.6-1.1-3.6-2.9s-4.5-4.4-6.9-3.9c-1.4.3-2.3-.2-2.7-1.5-.4-1.1-1.5-1.9-2.7-1.9-2.1,0-2.1,0-.2,1.5,1.8,1.3,1.7,1.4-1.2.3-1.8-.7-3.1-1.8-3-2.7,0-.9-.8-1.7-2.1-1.9-1.2-.2-2.2-.7-2.2-1.1s-2.2-1.5-4.9-2.4c-5.9-1.9-6.4-2-5.4-.4.6,1,.4,1-.8,0-.8-.7-1.8-.9-2.2-.6-.4.4-.7.1-.7-.5s-1.1-1.6-2.5-2.1-2.5-1.4-2.5-1.9-1.3-.8-2.8-.6c-1.5.2-3.5,0-4.2-.6-1.1-.7-.8-.8,1.1-.4l2.5.6-2.6-1.5c-1.5-.8-4.2-1.3-6.4-1.1-2.1.2-3.3,0-2.7-.4,1.8-1.1-3.2-3.4-6.3-2.9-1.8.3-2.6,0-2.6-.9s-.4-1.1-1-.8c-.5.3-2,0-3.2-.9-1.3-.9-3.8-1.3-6-1.1-2.1.2-3.5,0-3.2-.5.8-1.3-1.6-2.3-2.7-1.2-.7.7-1.7.7-2.9,0-1.2-.7-1.8-.6-1.8,0s.5,1,1.2,1,.8.3.5.7c-.4.4-1.7-.5-3-2-2.9-3.3-6.5-4.8-11.6-4.6-2.2,0-4.5-.3-5.2-.8-.7-.5-2.9-1.1-4.8-1.3s-4.3-.7-5.3-1.3c-1-.5-2.1-.7-2.4-.4-.3.3-1.4,0-2.5-.5-1.5-.8-1.8-.8-1.2.2.6.9.3,1.1-.9.6-1.1-.4-1.7-.1-1.7.9,0,2-3.2,1.4-3.7-.6-.3-1.2-.2-1.2.5-.1.7,1,1.1,1.1,1.7.1.4-.7.1-1.6-.6-2.1-1.1-.7-19.4-1.5-25.9-1.1-.8,0-1.8-.4-2.2-1.1-1-1.6-32.8-1.8-32.8-.2,0,.7-.3.7-.8,0-.4-.5-1.4-1-2.2-1s-1.8.5-2.2,1c-.5.6-.7.5-.8-.2,0-.9-1.7-1.2-5.5-1.1-3,0-5.3.5-5,.9M1030,330c0,.5.5,1,1.1,1s.8-.5.4-1-.8-1-1.1-1-.4.5-.4,1M1051.5,329.9c-.3.5-.1,1.2.4,1.6.6.3,1,0,1-.9,0-1.8-.6-2-1.5-.6M1014.3,331.5c0,.8.4,1.5.8,1.5s.8-.4.8-.9-.4-1.2-.8-1.5c-.5-.3-.8.1-.8.9M1018.5,331c-.3.5-.1,1,.4,1s1.1-.5,1.1-1-.2-1-.4-1-.7.5-1.1,1M1009.8,331.7c.7.3,1.6.3,1.9,0,.3-.3-.3-.6-1.3-.5-1.2,0-1.4.3-.6.6M1130.3,333.7c.1,2.1.2,2.1,1.9.6,2.1-1.9,2.4-3.1.4-1.4-1.1.9-1.5.9-1.9-.1-.3-.7-.4-.3-.4.9M1134.6,334.8c-.3.4.3.8,1.4.8s1.6-.4,1.4-.8c-.3-.4-.9-.8-1.4-.8s-1.1.4-1.4.8M962.1,340.6c0,1.2.3,1.4.6.6.3-.7.3-1.6,0-1.9-.3-.3-.6.3-.5,1.3M943,346.1c0,.6-.7.8-1.5.5-.8-.3-1.5-.2-1.5.3s.9,1.1,2,1.4c1.5.4,2,0,2-1.4s-.2-1.9-.5-1.9-.5.5-.5,1.1M538,348c-1.4.4-4.3.5-6.4.2-2.5-.3-3.7-.2-3.3.5.4.6-.3.8-1.8.5-1.4-.3-3.5.2-4.7,1-1.2.8-3.2,1.3-4.3,1.1-3.9-.8-7.9-.2-11.4,1.7-1.1.6-2.1.9-2.1.5s-1,0-2.1.9c-1.4,1-3.2,1.3-5.1.9-2.8-.6-2.9-.5-1.8,1.7,1,1.9,1,2.1-.1,1.4-.7-.5-1.9-.9-2.7-1-1-.2-1,.1-.1,1.2.9,1.1.9,1.4-.3,1.4s-1.8-.8-2.2-1.8c-.6-1.5-.8-1.6-1.9-.2-.6.8-2.1,1.6-3.2,1.8-1.1.2-2.9.5-4,.7-1.1.2-2.6.4-3.3.4-.7,0-1,.5-.7,1.1.3.6-.5,1-1.9,1s-2.8.5-3.1,1c-.3.6-1,.8-1.5.5-.5-.3-1.8.3-2.8,1.4s-2.2,1.7-2.5,1.4c-.3-.3-3.5.9-7.2,2.6-5.4,2.5-6.5,3.5-6,4.9.5,1.4.4,1.5-.6.5-1.6-1.6-2.4-1.6-4,0-.7.7-2.4,1.8-3.8,2.5-1.4.7-1.7,1-.8.8,1-.3,1.8-.2,1.8.2,0,1-6.1,3.2-7.1,2.6-.5-.3-.9.2-.9,1s-.5,1.6-1.1,1.6-.7-.6-.3-1.2c.4-.7-.2-.4-1.4.6-1.2,1.1-1.9,2.7-1.7,3.9.6,3.3-.5,4-3.3,2.2-2.5-1.6-2.7-1.6-4.2.2-.9,1.1-3.2,2.9-5.1,4.1-3.3,2-8.6,7.3-9.2,9-.1.4-.6.6-1.1.5-.5-.2-2.8,1.5-5.2,3.8-2.4,2.2-4.2,4-3.9,4s-1.9,2.2-4.7,5-4.7,5-4.1,5,1,.7,1,1.5-.3,1.2-1.1.5c-1.4-1.4-11.7,9.7-10.9,11.7.3.7,1,1,1.6.7.6-.4.8-.2.3.5-.4.6-1.7,1.6-2.9,2.2-2,1-2,.9-.5-.3,1-.8,1.4-1.7,1.1-2.1-.9-.9-2.4-.8-2.1,0,.1.4-.3,1.7-1,2.9-.6,1.2-.9,2.4-.6,2.7.3.3-.3.5-1.3.4-1,0-1.7.4-1.6,1.1.1.7-.2,1.2-.8,1.2s-1,.9-1,2.1-.4,1.8-1,1.5c-1.2-.7-2.9,2.4-2.5,4.7.2,1-.1,1.5-.6,1.2-.5-.3-.9,0-.9.5s.5,1.1,1.1,1.1.8.4.5,1c-.3.5-1.2.7-2,.4-1.6-.6-5,4-4.1,5.5.3.5-.1,1.2-1,1.6-.9.4-1.4,1.2-1,2.2.3.8.3,1.3-.1,1.1-.4-.2-1.5.6-2.5,1.9s-1.3,2.4-.8,2.4,1-.5,1-1,.4-1,.8-1,.8.7.8,1.5-.4,1.2-.8.9c-.5-.3-1.1.2-1.5,1.1-.5,1.3-.8,1.4-1.6.3-.7-1-.8-.8-.3.5.4,1.1,0,2.3-.9,3-.8.6-1.6,2.5-1.8,4.3-.1,1.7-.4,3-.6,2.8-.6-.6-3,2.9-3.1,4.4,0,.7,1,1.7,2.2,2.2l2.2.9h-2.3c-1.5.1-2.1.5-1.6,1.3.5.8.2,1-1.1.5-1.3-.5-1.6-.3-1.2.8.3.8.2,1.5-.2,1.5s-.7,2.4-.5,5.2c.3,4.7.2,5.1-1.1,3.4-1.4-1.8-1.5-1.7-2.1.9-.4,1.7-.2,3.6.5,4.8,1,1.7,1,1.9-.3,1.4-.9-.3-1.7.1-2,1.1-.3.9-.8,2.6-1.2,3.7-.6,1.6-.5,1.7.4.5,1.3-1.8,1.5-.7.2,1.8-2.4,4.7-4.1,9.3-3.2,8.8.5-.3,1.2-.1,1.6.4.3.6,0,1-.9,1s-1.6,1-1.6,3.2c-.2,6.4-1.6,17.5-2.4,18.8-.3.5-.2,1,.4,1s1.2.7,1.6,1.6c.5,1.3.3,1.4-.8.5-1.1-.9-1.4-.4-1.4,3.1,0,2.3-.1,4.5-.2,4.8-.1.3-.3,2.9-.4,5.8-.1,4.6,0,5.2,1.6,4.8,1.2-.3,1.8.1,1.8,1.4s-.6,1.7-1.8,1.3c-1.5-.4-1.7,0-1.4,3.1.2,2,.8,3.3,1.3,3,1.4-.9,1,.6-.5,2.1-1,1-1.2,2.4-.6,5.2.5,2.1.5,4,.1,4.3-1.4,1-1,6,.4,6s1.4.7,1.4,1.6c0,1.4-.2,1.4-1.6.3-1.5-1.2-1.6-1.1-.9,1.1.4,1.4,1,3.1,1.3,3.7.3.7,0,1.2-.6,1.2s-.8.7-.5,1.5c.3.8.9,1.3,1.3,1,.4-.3.5.7.3,2.1-.3,1.4-.8,2.1-1.1,1.5-.3-.6-.6,3.6-.6,9.3,0,5.7.4,10.1.9,9.8.5-.3.4.3,0,1.3-1,2.1-.9,5.5.2,7.4.4.7.4,1-.1.7-.5-.3-.9,6.1-1,15.3,0,8.7.3,15.6.8,15.3.5-.3.8,0,.8.5s-.4,1.1-.8,1.1c-1.4,0-1,3.4.7,5.4,1.5,1.8,1.5,1.9,0,1.3-1.2-.4-1.6,0-1.6,1.9s.4,2.3,1.3,2c.7-.3,1.7,0,2,.6.4.7.2.8-.5.4-.7-.4-1.2,0-1.2.8s-.6,1.7-1.2,2c-.9.4-.9.8.3,1.8.9.7,1.8,2,2.2,3,.5,1.2.2,1.5-1.3,1.1-1.1-.3-1.9,0-1.9.6s.7,1.1,1.6,1.1,1.3.4.6,1.2c-1.7,2.1-2.5,9.7-1,9.8.9,0,.9.2,0,.9-.9.6-1,1.1-.3,1.5.6.4.9,1.5.7,2.7-.2,1.1,0,1.8.5,1.5.5-.3,1.1.2,1.4,1.1.8,2.2.8,2.4-.6,2.2-.7-.1-1.1.3-1,1,.1.7-.3,1.2-.9,1.2s-.8.4,0,1.4c.9,1.1.9,1.5-.1,1.9-.9.4-1,.8-.2,1.3,1.3,1,1.5,4.3.3,4.3s-.2,10.1,1.1,11.3.4,1.4-.7,2.3c-1.2.9-1.3,1.3-.4,1.3.7,0,1,.5.7,1.1-.8,1.3-1.4,22.7-.7,23.5.5.5.4,11.9-.2,18.5-.1,1.4.1,3.5.5,4.6.4,1.2.4,2.4,0,2.8-.9.9-1,6.6,0,6,1.3-.8,1,2.1-.3,3.4-.9.9-.9,1.5,0,2.6.7.8.8,1.7.4,1.9-1,.6-1,17.8,0,19.4.4.7.4,1.2,0,1.2-1.4,0-.7,25.8.7,27.5,1,1.2.9,1.6-.3,2.1-1.2.4-1.4,1.5-1.1,4.3.9,6.9,1.1,14.2.4,14.2s-.7,1.9.2,3.5c.3.5.4,2.6.2,4.5-.2,1.9-.4,4-.5,4.5,0,.5.3,1.9.7,2.9.6,1.3.4,1.7-.4,1.2-.6-.4-1.2-.2-1.2.5s.8,1,2,.7c2.3-.6,2.7.8.6,2-1.9,1.1-3.1,5.9-1.7,6.8.8.5.8,1.2,0,2.6-.7,1.2-.7,2.6-.1,3.6.6,1,.6,2.7,0,4.5-1.1,3-.2,5.1,1.1,2.9.6-.9,1-.7,1.4,1,.9,3.4.8,4.8-.4,4.8s-.8-.9-.4-2.2c.6-2.2.6-2.2-.9-.3-1,1.3-1.2,2.3-.6,3.1.6.7.6,1.5,0,2.1-.6.6-.6,2.2,0,4.2.5,1.8.6,3.4.2,3.7-1.3.8-.6,4.4,1.3,6.4,1.6,1.8,1.6,1.9-.2,2.4-1.6.4-1.8,1-1.2,3.9.4,1.9.4,5.2,0,7.4-.9,4.8,0,10.3,1.2,8.3.6-.9.8-1,.9-.1,0,.7-.4,1.4-.9,1.7-.9.6-1.4,44.8-.5,47.8.3,1,.9,1.5,1.4,1.2.5-.3.9,0,.9.5s-.7,1.1-1.5,1.1-1.4.8-1.1,2.2c.2,1.2,1,2.1,1.7,2,1-.2,1,0-.1,1-1.7,1.4-2.7,5.3-1.1,4.3.6-.3.9.3.9,1.4,0,1.1-.5,2-1,2-1.3,0-.7,19.1.6,19.6.6.2,1.2,1.8,1.3,3.5.1,1.7-.2,2.8-.7,2.5-.5-.3-1.2,0-1.5.5-.3.6-.2,1,.4,1s1,.8,1,1.8c0,1,.2,2.8.5,4,.3,1.3.1,2-.4,1.7-1.4-.9-1.2.9.3,2.5.9.9.9,1.1,0,.7-.8-.4-1.2.1-1.2,1.6-.1,6.2,0,8.1.7,9.2.4.6.8,5.4,1,10.6.1,5.2.4,12.2.7,15.5.2,3.3.4,7.7.5,9.8,0,2.6.5,3.6,1.3,3.1.8-.5,1-.2.5.9-.3.9-.2,1.9.2,2.2s1.1,0,1.4-.7c.3-.8.5-.6.6.5,0,1-.3,1.8-.7,1.8-1.3,0-1.2,8.9.2,12.9.8,2.1,1.1,4.9.8,6.1-.4,1.6-.2,2,.6,1.5.6-.4.9-1.2.5-1.8-.4-.6-.2-.8.5-.4.8.5.9,1.3.2,2.6-1.3,2.5-1.3,6,0,6s.8.3.6.8c-.3.4,0,2.8.5,5.2.5,2.5,1,5.3,1,6.3,0,1,.5,1.5,1.1,1.1.7-.4.9,0,.5,1.5-.4,1.5-.1,2.2.8,2.2s1.4.5,1.4,1.1.6.7,1.2.4c1-.6,1-.4,0,.6-.7.7-1.2,2.5-1.2,3.9,0,2,.2,2.2,1,1.1,1.3-2,1.3-.4,0,2.1-.8,1.6-.7,2.4.5,3.8.9,1,1.7,3.1,1.8,4.7s.7,3.6,1.4,4.4c1.3,1.5,1.4,1.9,1.4,4.6s.3,1.4.8,1.1,1.3.1,2,.9c.9,1,.9,1.4,0,1.7-.7.2-.9,1.1-.3,2.3.5,1.1.7,2.6.6,3.4-.1.8.6,2.1,1.6,2.8,1,.7,1.8,2.6,1.8,4.1,0,2.2.4,2.6,2.2,2.4,1.2-.2,2.2.2,2.2.8s-.7,1.1-1.5,1.1-1.5.6-1.5,1.4c0,1.7,2.5,3.8,3.4,2.9.4-.4.4,0,0,1-.4.9-.2,1.7.3,1.7s1,1.3,1,2.9c.1,3.6,3,8.3,4.6,7.4.6-.4.5,0-.2,1-.9,1.1-1,1.7-.2,1.7,2.1,0,2.6-.5,2.5-2.2,0-.9.2-1.5.7-1.2.7.4.6,2.7,0,4.5-.1.3-.1.9,0,1.3,0,.5-.3.5-.9.2-.6-.4-.8,0-.4.9.3.9.9,1.3,1.3,1.1.4-.3.6.6.5,2-.1,1.4.1,2.2.6,1.9.5-.3.9.6.9,2s.4,2.4,1.4,2c.8-.3,1.7,0,2.2.7.5.8.3,1-.6.4-.8-.4-.5.1.6,1.2,1.1,1.1,2.3,1.9,2.6,1.7.3-.2.6.3.6,1s-.6,1.1-1.2.9c-.8-.3-.5,1.1.8,3.6,1.1,2.2,2.4,4.1,2.9,4.1s.9.7.9,1.6.5,1.4,1.6,1c.9-.3,1.3-.2,1,.3-.7,1.2,3.4,8.2,4.4,7.6.4-.3,1.4.3,2.2,1.3,1.2,1.6,1.2,1.6-.4.4-2.1-1.7-2.4.1-.2,1.9.8.7,1.5,1.7,1.5,2.2,0,1.7,3.7,5.8,4.5,5,.4-.4.5,0,.1,1.1-.4,1.1,0,2,.8,2.4.8.3,1.2,1,.9,1.5-.3.5.2.9,1.1.9s1.3.5.9,1.2c-.5.8-.2,1,1.1.5,1.5-.6,1.6-.5.6.8-1,1.2-1,1.6.4,2.1.9.3,1.6,1.2,1.6,2s.5,1.3,1.2,1.1c.7-.1,1.2.2,1.3.8.1,2.1,8.7,13.5,10.1,13.5s1.3.4,1,.9c-.3.5.1,1.2,1,1.5.8.3,1.4.9,1.2,1.4-.1.4.1.9.6.9.5,0,1.3.8,1.8,1.5.7,1.1.8,1,.5-.2-.2-.8-.9-1.4-1.5-1.3-.6.1-.9-.6-.8-1.5.1-.9.9-1.7,1.7-1.7s1.4,1.3,1.5,4c0,3.1.4,4,1.8,3.9,1.3-.1,1.4.2.7,1.1-1,1.2,1,3.9,3.5,4.7.5.2.9.8.7,1.3-.2.6.2.5.9-.2.8-.8.9-1.6.2-2.5-.6-.7-1.3-2.1-1.6-3.1-.5-1.5-.3-1.6,1.4-.7,1.1.6,2.5.8,3.1.4.7-.4.9-.3.4.5-.4.7-1.4,1-2.1.7-.8-.3-1.2,0-.8.9.3.8,1.1,1.3,1.7,1.1.6-.1.8,0,.4.1-.4.2-.8.9-.8,1.4s.5.7,1.2.3c.7-.4.9-.3.5.3-.4.6,0,1.6.9,2.3,1.2,1,1.3,1.5.2,2.8-.8.9-.8,1.3-.1.9.6-.4,1.7,0,2.4.8s1.6,1.3,2,1c.4-.3,1.1,0,1.5.7.5.7.3.9-.4.5-.6-.4-1.1-.3-1.1,0,0,1.2,3.7,5.8,4.7,5.8,1.6,0,5.3,3.2,4.6,4-.4.4.4.2,1.8-.5,2.1-1,2.3-1,1.2,0-1.8,1.9-1.6,4.3.3,3.5.9-.3,1.3-.2,1,.3-.6.9,3.2,2.7,4.8,2.2.5-.1.5.3.2.8-.8,1.3,1.4,4.2,2.6,3.4.5-.3,1.7,0,2.8.5,1.4.8,2.1.7,2.5-.2.3-.7.4,0,.2,1.4-.4,2.8,3.4,7.6,4.8,6.1.4-.4,1,.3,1.3,1.5.3,1.2,1,1.9,1.5,1.6.5-.3.9,0,.9.5s1.3,1.1,2.9,1.1,3.5.8,4.2,1.8c1.2,1.6,1.2,1.6-.4.4-2.5-2-2.2-.6.4,1.8,1.2,1.1,2.9,1.8,3.8,1.5,1.2-.4,1.6,0,1.6,1.6,0,1.4,1,2.8,3.2,4,1.8,1,3.1,1.5,2.8,1.1-.3-.4.7-.8,2.1-.9,2.1-.1,2.3,0,.9.8-1.4.8-1.5,1.3-.5,2.9.7,1.1,2.3,2,3.5,2s2.1.4,1.7,1.1c-.4.6,0,.9,1.2.8,1.1-.2,1.7.2,1.6,1.1-.2.9.3,1.2,1.3.8.9-.4,1.3-.2,1,.4-.3.5,1.1,1.8,3.2,2.7,2.1,1,4,2.1,4.1,2.5.2.4.7.5,1.2.2.5-.3,2.1.7,3.5,2.2,1.4,1.5,2.9,2.8,3.3,2.9,2.1.3,4,1.8,3.5,2.7-.4.7,0,.8,1.1.4,1-.4,2.4-.2,3.2.5,1.1.9,1.3.8.8-.7-.4-1.3-.2-1.1.6.4.7,1.2,1.9,2.3,2.8,2.3,1.2,0,1.3.2.4.8-.8.5,0,1.2,2.5,2.1,2.1.7,4.9,2,6.2,2.9,2.7,1.8,3,1.9,6.2,2.1,1.8.1,2,.3.8,1.1-1.2.8-1,1,.8,1,1.3,0,2-.4,1.7-.9-.3-.5-.2-1.2.3-1.5,1.4-.9,2.1,2,.8,3.4-.9,1-.7,1.1,1.1.7,1.2-.3,2-.1,1.7.4-.3.5,0,1,.5,1,3.3.4,4.5.2,4.4-.8-.1-.6.4-1,1.2-1,1.1,0,1.2.3.2,1.4-1,1.2-.8,1.8,1.1,3.3,1.3,1,2.8,1.6,3.3,1.3.5-.3,1.7,0,2.6.8.9.8,3,1.5,4.6,1.7,1.6.2,3.6,1,4.4,1.8.8.8,2.1,1.2,2.9.9.9-.3,1.2-.1.7.6-.4.7,0,.9,1.3.5,1.2-.4,2.5,0,3.2.9.7.8,2.1,1.5,3.1,1.5s2.1.4,2.4.9c.3.5,1.5.8,2.6.5,1.1-.2,2.2.2,2.5.9.3.7,1.1,1.3,1.9,1.3s1.2-.3,1-.7c-.2-.4.2-1,1-1.3.8-.3,1.8,0,2.1.6.4.7.2.8-.5.4-.6-.4-1.2-.2-1.2.5s1,1,2.4.7c1.7-.3,2.3,0,1.9.8-.3.8.2,1.2,1.3,1,1-.2,2.1.1,2.4.6.3.5,2.1,1,4,1.1,1.9.1,4,.6,4.8,1.1.8.5,3.2,1.1,5.5,1.3,2.3.2,5.1.9,6.3,1.5,1.7.8,2.6.8,3.8-.2,1.3-1.1,1.5-1,1,.1-.4.9.2,1.5,1.5,1.6,1.1,0,2-.4,2-1,0-.8.2-.8.8,0,1,1.5,5.2,2.5,5.2,1.2s.5-.9,1.1-.9.8.4.4,1-.2,1,.4,1,1.2-.6,1.5-1.2c.3-.7.5-.5.6.6,0,1,.5,1.6,1,1.2.5-.3,1.2-.2,1.5.3.3.5,3.1.9,6.2,1s6.1.4,6.5.7c.5.3,4.4.7,8.6.8,4.3.2,8.8.9,10.1,1.5,2.4,1.3,7.6.6,6.7-.8-.3-.4.1-.8.9-.8s1.2.3,1,.7c-.9,1.5,2.6,1.8,19.2,1.7,13.6,0,17.4-.4,19.3-1.7,1.4-.9,2.1-1.1,1.8-.5-.8,1.3,3.4,2.8,4.2,1.5.3-.5,1.3-.7,2.3-.6,1,.1,1.8,0,1.8-.4,0-.4,3-.7,6.8-.8,17-.4,30-2.4,28.7-4.4-.3-.4.2-1,1-1.3.9-.3,1.3,0,1,.7-.3.9.9,1.1,4.3.9,2.6-.2,5.6-.3,6.5-.3,1,0,1.8-.5,1.8-1s.4-.7.9-.4c.5.3,1.2,0,1.6-.5.5-.8.9-.8,1.4,0,.6.9,1.1.9,2.1-.2.7-.8,2.4-1.2,3.7-1,1.3.2,4.5-.2,7.1-.9,2.6-.7,5.1-1.2,5.6-1.1.5.1.6-.5.2-1.4-.5-1.4-.4-1.5.8-.5,1,.8,2.2.9,3.9.2,1.4-.5,2.8-.7,3.1-.4.3.3.6,0,.6-.9s.7-1.4,2.3-1.1c1.2.2,3.6-.1,5.2-.8,1.6-.7,3.7-1.3,4.5-1.3,4-.4,9-1.9,10-3.1.6-.7,1.9-1.1,2.9-.8,1,.3,2.4-.3,3.2-1.3,1.3-1.6,1.2-1.6-.7-.6-1.6.8-2.1.8-2.1,0s1.2-1.2,2.8-1.2c1.5,0,2.6.3,2.3.7-.2.4.5.5,1.6.2,1.1-.3,2-.9,2-1.3s.8-.7,1.8-.5c1,.2,2.3-.7,3-1.8,1.1-1.9,1.2-1.9,1.2-.3,0,1.2.5,1.5,1.3,1,.7-.4,1.9-.8,2.8-.8.8,0,1.4-.6,1.2-1.4-.2-.8.3-1.2,1.2-.8.8.3,1.7,0,2-.8.3-.8,1.4-1.1,2.6-.8,1.3.3,2.3,0,2.7-1.1.3-.9,1-1.4,1.5-1.1.5.3,3.3-.7,6.1-2.2,6.7-3.5,6.4-3.3,4.7-4.4-1-.6-1.1-.9-.2-.9,2.3,0,2.8.2,2.5,1.1-.4,1.4,1.4,1,2.7-.6.7-.8,1.5-1.4,1.9-1.3,1.4.3,6.1-2.2,8.1-4.2,1.1-1.1,2-1.8,2-1.4s.9-.5,2.1-1.8c1.1-1.3,1.8-1.8,1.4-1.1-.3.7-.1,1.2.5,1.2s1.3-.7,1.7-1.5c.3-.8.9-1.3,1.4-1,1.5.9,6.1-1.8,5.5-3.2-.3-.8,0-1.1.5-.8.5.3,1-.2,1.1-1.2,0-1,.3-1.3.6-.6.6,1.4,3.4.5,5.1-1.6.7-.9,1.2-1.2,1.2-.7,0,.4,1.8-.2,4-1.4,2.2-1.2,3.7-2.6,3.4-3.1s-.2-.8.3-.7c1.7.4,6.2-2.1,7.2-3.9.7-1.3.7-2.3-.2-3.2-1-1.1-.9-1.1.5,0,1,.7,1.4,1.8,1.1,2.5-.7,1.2,1.6-.4,5.2-3.6,1.1-1,2.9-2.4,4-3.2,1.7-1.2,1.8-1.6.5-3.2-1.3-1.7-1.3-1.7.8,0,2.1,1.8,2.8,1.5,2.3-.9-.1-.6.1-.7.5-.3,1,1,6.5-2,6.4-3.5,0-.9-.2-.9-.6,0-.3.7-1,1.2-1.5,1.2s-.7-.5,0-1.3c.6-.7.9-1.6.6-1.8-.3-.3,1-.3,2.8,0,1.8.2,2.9.1,2.6-.3-.9-1,2.8-4.5,4.7-4.5s1.6-.7,1.6-1.5c.2-2.9.4-3.3,1.3-4.2.5-.5.7.1.3,1.4-.6,2.6.7,2.1,2.4-.9.9-1.7.8-1.9-.2-1.3-.9.5-1,.4-.3-.3.5-.6,1.9-1.2,2.9-1.4,1.1-.2,1.9-.8,1.8-1.3,0-.6.9-1.4,2-1.8,1.8-.7,1.9-1,.7-1.8-1.2-.9-1.2-1,.2-.5,1.2.4,3.7-1.3,7.7-5,5.1-4.7,5.9-6,5.6-8.5-.2-1.7,0-2.7.6-2.3.5.3.7,1,.4,1.5-.8,1.2.7,1.2,2.5-.2,1.1-.8,1.2-1.2.2-1.6-1.4-.6-1.7-3.3-.4-3.3s1.2.7,1.5,1.6c.5,1.3.9,1.4,2.1.4.8-.7,1.2-1.6.9-2.1-.3-.5,0-.8.6-.6.7.2,1.4-.3,1.7-1.1.3-.8,0-1.1-.6-.7-.6.4-1.4.1-1.8-.5-.4-.7-.3-.9.4-.5.6.4,1.4.2,1.7-.4s1.1-.8,1.6-.4c.5.3,2.5-1.1,4.3-3.2,1.8-2.1,4.5-5.2,5.9-6.8,1.4-1.6,2.4-3.1,2.2-3.3-.2-.2.8-1.6,2.4-3.1,2.4-2.4,3.3-6,1.1-4.6-.5.3-.6-.5-.2-1.7.4-1.6.7-1.8,1.2-.8.3.8,1.2,1.6,1.9,1.7.7.2,1-.2.7-.8-.3-.6,0-1,.8-1s1.7-.7,2-1.5c.3-.8,0-1.4-.5-1.2s-1.4-.7-1.9-1.8c-.6-1.6-.4-2.1,1-2.2,1.2,0,1.6.3,1.3,1.3-.3.9,0,1.4,1.1,1.4s1.5-.6,1.1-1.9c-.4-1.1,0-2.4,1.1-3.2,1.5-1.2,1.6-1.2.9.1-.5.9,0,.8,1.3-.4,2.4-2.1,2.8-3,.9-2.1-.7.3-.4,0,.6-.9,1.2-.9,1.6-2.2,1.2-3.2-.5-1.3-.4-1.5.7-.6,1.4,1.1,1.6.9,8-11.4,1-1.9,2.3-3.5,2.8-3.5s.7-.4.4-.9c-.3-.5,0-1.1.8-1.4.8-.3,1.2-1.6,1.1-3-.2-1.7.6-3.3,2.4-4.8l2.7-2.3-2.4,2.8c-1.3,1.5-1.9,2.8-1.3,2.8,1.3,0,4.3-4,3.7-5-.2-.4.5-1.5,1.5-2.5,1.1-1,2-2.6,2-3.5s.7-2,1.6-2.3,1.5-1.4,1.4-2.4c-.3-3.4,0-4.5,1.4-3.9.9.4,1.6-.5,2.1-2.6.4-1.7.7-3.5.6-3.9,0-.4.2-.6.6-.5.4.1.8-.2.9-.6,0-.5.6-1.2,1.2-1.5.6-.3,1.2-1.9,1.5-3.4.3-1.5,1.4-4,2.4-5.5,1.1-1.6,1.8-3.9,1.6-5.7-.2-1.6.1-3.7.6-4.7.7-1.2.6-1.9-.3-2.2-.7-.3-.3-.4.9-.4,2,0,2,.3.8,2.1-1.7,2.5-1.8,3.6-.2,3.6s.9-.3.5-.7c-.4-.4,0-1.7.9-3,.8-1.3,1.2-2.3.8-2.3s.1-.6,1.1-1.3c1.3-.9,1.7-2.2,1.3-3.9-.3-1.6,0-2.5.6-2.4.6.1,1.1-.9,1.2-2.3,0-1.4.4-3.1.8-3.8.4-.7.4-1.7,0-2.4-.4-.7-.3-.9.3-.5,1.3.8,2.8-1.1,3.6-4.3.3-1.4,1.1-4.3,1.7-6.5.6-2.2,1.3-5,1.5-6.3.2-1.3,1-3,1.7-3.9,1.2-1.4,1.1-1.6-.7-1-1.9.7-1.9.6-.2-.7,1-.8,1.9-2,2.1-2.8.1-.7.8-2.6,1.4-4.1.6-1.5,1.4-4.7,1.8-7,.4-2.3,1-4.6,1.4-5.2s.7-3.6.5-6.7c-.1-3.6.2-5.6.8-5.5.6.1,1.1-1.6,1.1-4,0-2.5-.3-3.9-.9-3.6-.5.3-.6,0-.2-.6.4-.7,1.3-1,1.9-.8.8.3,1.3-1.6,1.5-6.2.2-3.6.7-6.9,1.1-7.1.4-.3.9-4.8,1-10,0-5.2.6-9.7,1.1-10.1.5-.3.9-6.8.8-15-.2-14-.2-14.5-2.8-17.4-1.5-1.7-1.8-2.3-.7-1.5,1.8,1.4,1.8,1.3.7-.8-.7-1.2-1.6-2.2-2.1-2.2s-1.2-.9-1.5-2-1.3-2-2.1-2-1.2-.4-.9-1,.3-1-.2-1c-.4,0-2.3-1.4-4.1-3.1-1.8-1.7-3.2-2.7-3.2-2.3s-.6-.1-1.4-1.2c-.8-1.1-1.7-1.6-2.1-1.2-1,1-4.4-1-4.4-2.7s-1.6-2.4-3.5-3.6c-1.9-1.2-4.2-2.8-5-3.7-.8-.8-1.5-1.3-1.5-1s-1.5-1.1-3.4-2.9c-3.3-3.3-8.6-4.7-8.6-2.3s.7.8,1.6.5c1.4-.5,1.4-.4.3,1-1.2,1.4-1.4,1.4-2.3-.1-.7-1.3-.5-2,.6-2.9,1.4-1,1.2-1.4-1.2-2.8-1.5-.9-3-1.4-3.3-1.1-.3.3-.8-.6-1.2-2-.4-1.7-1.3-2.5-2.7-2.5s-1.8-.4-1.5-.9c.3-.5-.6-1.4-2-2-2.7-1.2-4.7-2.7-7.2-5.4-.9-1-2.2-1.8-2.9-1.8s-1.3-.4-1.3-1c0-1.9-4-3.3-5.6-2-1.2,1-1.4.9-.9-.2.3-.9-.3-1.8-1.7-2.4-1.3-.6-1.7-.9-1-.7,1,.2,1-.1,0-1.7-.7-1.1-1.8-1.8-2.5-1.5-.7.3-1,0-.7-.5.3-.5,0-1-.9-1s-1.8.5-2.1,1c-1.2,1.9-2.4,1-1.9-1.6.5-2.8-1.7-5.3-4.9-5.4-1,0-1.8-.8-1.8-1.8,0-1.3-.2-1.4-.9-.4-.6,1-1,.8-1.4-.8-.3-1.2-1-2-1.5-1.8-.5.2-1.1-.2-1.3-.7-.6-1.9-4.3-4.3-5.8-3.7-.9.4-1.2.1-.7-.6.4-.7,0-1.2-1.1-1.2-1,0-3.3-1.8-5.2-4s-3.8-4-4.3-4-2-1.1-3.4-2.5-3.6-2.8-4.9-3.1c-1.4-.3-2.2-1.1-1.8-1.7.4-.7.2-.7-.7-.2-.7.4-2.7.9-4.3,1.1-2.4.2-2.7,0-1.3-.7,1-.5,2.5-.7,3.4-.4,1,.4.5-.5-1.1-2-2.2-2.1-3.1-2.4-4.8-1.5-1.6.9-2,.8-2-.5s.7-1.5,1.6-1.5c1.3,0,1.4-.3.4-1.5-.7-.8-1.5-1.3-1.8-1s-1.1,0-1.8-.5c-.9-.8-1.9-.4-3.5,1.3-1.6,1.6-2.1,1.8-1.6.6.3-.9.3-1.9-.1-2.1-.4-.2-.1-.3.5-.1,1.9.4,2.6-1.5,1.2-3.2-.7-.8-1.5-1.2-1.8-1-.3.3-1.4-.3-2.5-1.2-1.1-1-1.7-1.3-1.4-.7.3.6,0,1.1-.7,1.1s-1.1-.6-.9-1.3c.9-2.3-.7-3.6-2.4-2.2-1.4,1.1-1.5,1-1-1,.5-1.9.1-2.4-2.3-2.9-1.6-.3-2.9-1-2.9-1.4s-1.2-1.6-2.6-2.5c-2.2-1.4-2.7-1.5-3.4-.3-.5.8-1.2,1.1-1.6.7-.4-.4.1-1.4,1.2-2.3,1.7-1.4,1.7-1.5.2-1-1.1.4-1.8,0-1.8-.9s-.7-1.5-1.6-1.5-1.3-.5-.8-1.2c.4-.7.3-.9-.4-.4-.6.4-1.2.2-1.2-.5s-.7-.9-1.7-.5c-.9.4-1.4.4-1,0,.8-.8-6.4-7.5-7.4-6.8-.4.2-.9-.3-1.2-1.1-.3-.8-1.2-1.2-2.1-.9-.8.3-1.5,0-1.5-.6s-.7-1.9-1.5-2.7-1.5-1.3-1.5-1-1.6-.6-3.6-1.9c-2-1.4-4.5-2.5-5.6-2.5s-1.8-.6-1.6-2.2c.2-1.2-.1-2.2-.7-2.2-1.2,0-8.3-4.5-7.2-4.5.5,0,.1-.7-.8-1.6s-2.3-1.3-3.1-1c-.9.4-1.5,0-1.5-1.2,0-1.4-.2-1.5-.8-.2-.9,2-2.8,2.3-2.8.5s.4-1.1,1-.8c.5.3.8,0,.6-.6-.2-.7-.8-1.1-1.3-1.1-.5,0-1.2-.4-1.7-1.2-.6-1-1.1-1-2-.2-1.2,1.2-.3,5.7.9,4.9.4-.2.7.4.7,1.4s-.3,1.6-1.2.9c-.8-.7-1.2-.2-1.2,1.5s.6,3,1.3,3.6c1.1.9,1.1,1.6-.2,4-1.6,3.1-1.1,5.4.9,4.2.7-.4.4.2-.6,1.3-1.9,2.2-2.4,9.3-.6,9.3s.8.4,0,1.4c-1.3,1.5-1.1,5.6.2,6.6.4.3.4,1.7-.2,3.1-.6,1.6-.6,3.1,0,4.3.7,1.3.7,1.6-.1,1.1-.7-.5-1.1.3-1.1,2.1,0,1.9.3,2.4.9,1.5.7-1.1.9-1.1,1.4,0,.8,2-.8,4.5-1.6,2.6-.3-.8-.5.7-.5,3.1,0,2.5.5,5.3,1,6.2.5,1.1.5,1.8-.2,1.8-1.4,0-1.3,3.3.2,4.9,1,1.1,1,1.2,0,.6-1-.5-1.2,1.1-1.2,6.8s.3,7.7,1.8,8.6c1.7,1.1,1.7,1.1,0,.6-1.4-.5-1.7,0-1.5,2.7.1,1.8.9,3.8,1.8,4.5,1.3,1.1,1.3,1.2-.2.6-1-.3-1.8-.3-1.8.1s.8,1.4,1.8,2.1c1.7,1.3,1.7,1.3,0,.8-2.1-.7-2.5,2.4-.5,4.6.8.9.8,1.1,0,.7-.8-.5-1.2,2.2-1.1,9.9,0,5.9.4,10.5,1,10.5s.6-.5.2-1.2c-.4-.7-.3-.9.4-.4,1.6,1,1.5,3.9-.2,3.3-1-.4-1.3.8-1.1,4.8.1,2.9.5,5.8.9,6.4.4.6.2,1.1-.3,1.1-1.3,0-1.1,4.1.3,5.9.8,1,.8,1.3,0,.8-1.3-.8-1.3,6,0,8,.5.7.3,1.2-.3,1.2s-1.1.9-1.1,2.1.4,1.8,1.2,1.3c.7-.4.9-.4.5,0-.4.4-.2,1.7.4,2.9,1,1.9.9,2-.4.8-1.2-1-1.7-1-2.3,0-.5.8-.3.9.6.4,1-.6,1.1-.3.6,1.1-.9,2.3-.9,1.7-.7,8.7,0,4.4.4,5.6,1.4,5,.7-.4.4.5-.6,2.1-1.6,2.4-1.7,3.3-.7,5.5,1.4,3.1,1.4,3.6-.2,3.6s-1.2.5-1.2,1.2-.3,1.5-.8,1.9c-.4.4-.7,1.7-.7,2.8,0,2,0,2,.9,0,.5-1.1,1.9-2.9,3.2-4,1.5-1.2,1.9-1.4,1.1-.3-1,1.3-1,1.8,0,2.2.7.3.2.6-1.2.6-2.5.1-2.5.1-.5,1.7,1.7,1.4,1.8,1.5.2,1-1.5-.5-1.7-.2-1.2,1.6.5,1.8.4,1.9-.4.7-.9-1.3-1.2-1.3-2.1,0-.5.8-1,2.3-1,3.2,0,.9-.5,2-1,2.3-.6.3-.8,1-.5,1.5s0,1.2-.6,1.5c-.6.4-.8,1.4-.4,2.3.4.9.8,2.6.9,3.8.2,1.6-.1,2-1.3,1.6-1.3-.5-1.4-.3-.4.9.8,1,.9,1.9.2,2.9-.8,1.2-.9,1.1-.4-.4.5-1.6.4-1.7-.9-.6-.9.7-1.4,1.8-1.2,2.4.2.6-.5,2.3-1.5,3.8-1.4,2-1.6,2.8-.6,2.8,1.1,0,1.1.2,0,.8-.7.5-1.4,1.8-1.5,2.9,0,1.2-.4,2.1-.7,2-2-.2-2.2.4-.5,1.8,1.1.9,1.4,1.3.7.9-.7-.4-1.2,0-1.2,1s-.4,1.4-.9,1c-.5-.3-.8.3-.6,1.4.2,1.1,0,2.3-.6,2.6-.5.3-.9,1.5-.9,2.5s-.7,1.9-2.2,2c-1.6,0-1.9.3-.9.9,1.1.7,1,1-.2,1.5-.9.3-1.6,1.5-1.6,2.7s-.4,1.8-1.2,1.4c-.7-.4-.9-.3-.5.3.3.6-.3,1.8-1.3,2.8-2.1,1.9-2.8,5.1-.8,3.9.7-.4.9-.3.4.5-.4.6-1.1.9-1.5.7-.5-.3-1.1.2-1.4,1-.3.9-1.1,1.3-1.6.9-.9-.6-1.5.8-1.1,2.8,0,.5-.3.6-.8.2-.5-.3-1.2-.1-1.6.4-.3.6-.2,1.1.4,1.1.6,0,1.5.2,2,.2.5,0,1.3.5,1.8,1,.5.5.3.6-.6,0-1.1-.6-1.3-.4-.7,1.1.7,1.9.6,1.9-.8,0-1.5-1.9-1.5-1.9-3.1,0-.9,1.1-1.2,1.3-.8.5.4-.9.3-1.2-.3-.8-.6.4-1.3,1.5-1.6,2.7-.3,1.1-.1,1.8.4,1.5.9-.6,5.4,1.4,4.7,2.1-.2.2-2,0-4-.5-2.9-.6-3.8-.5-4.2.7-.4,1-.1,1.3,1,.9.9-.3,1.3-.2,1,.4-.3.5-1.3,1-2.2,1-2.4,0-7.3,5.9-7.3,8.7s-.2,2.3-1.6,1.2c-1.3-1.1-1.7-1.1-2.4,0-.5.8-.6,1.8-.3,2.3.3.5,0,.6-.6.2-.6-.4-1.4,0-1.8.8-.3.9-1.2,1.6-2,1.6s-1.7.6-2,1.4c-.3.9-1.2,1.2-2.2.8-1.5-.6-1.5-.4-.2,1.2s1.3,1.8-.2,1.2c-1-.4-1.9,0-2.2.9-.3.8-1,1.2-1.6.9-.6-.3-1-.2-1,.3s-1.2,1.4-2.6,2.1c-1.5.7-2.3,1.6-1.8,2.3.5.8,0,1-1.4.6-2.2-.6-4.7,1.4-3.5,2.6.4.4-.1.4-1.2,0-1.3-.5-1.7-.4-1.2.5.4.7,0,1.4-.8,1.8-.9.3-1.2,1.1-.9,1.7.4.6,0,.5-1-.2-1.4-1.2-1.7-1.2-1.7,0,0,1.1-.2,1-1-.1-.8-1.3-1-1.2-1,.2,0,1-.4,1.7-.8,1.6-2-.3-3.3.2-2.8,1.1.3.6-.3,1-1.4,1s-2.3.4-2.6,1-1.7,1-3,1-2.6.7-3.1,2.2c-.9,3-2.5,4.8-3.6,4.2-.5-.3-.2-1.3.7-2.1.9-.9,1.2-1.8.9-2.2-.4-.3-.9,0-1.1.6-.2.7-1.1.9-2,.6-1.2-.4-1.4-.2-.8.7.6,1,.4,1.2-.8.7-.9-.3-1.9-.1-2.3.5-.4.7-.2.8.6.3.8-.5,1.1-.4.7.2-.8,1.3-4.7,2.4-4.7,1.3s-.7-.7-1.5-.7c-2.2,0-1.8,1.8.6,2.4,1.6.4,1.8.7.8,1.4-1.6,1-3.5,1.2-2.5.2.8-.8-1.2-3.3-2.6-3.3s-.7.7-.4,1.6c.3.9.2,1.3-.4.9-.5-.3-1,0-1,.6s-.4.9-1.5,0c-.8-.7-1.9-.9-2.4-.6-.5.3-2.2.8-3.8,1-20.6,3.1-20.8,3.2-19.1,5,1,1.1,1.6,1.1,3.2-.3q2-1.6,0,.6c-1.9,2.3-6.6,3.1-6.6,1.2s-.6-.8-1.2-.4c-.7.3-.4,0,.7-.9,1.6-1.3,1.7-1.6.3-1.6s-1.9.5-2.3,1.1c-.4.6-1.2.9-1.8.6-.6-.2-1.9,0-2.9.5-1.1.6-1.8.5-1.8-.1s-.5-1-1.1-1-.7.5-.3,1.2c.5.8.3.9-.6.4-1.7-1.1-10-1.3-10-.2s-.8.4-1.8,0c-2.6-1.2-10.3-.7-11.3.8-.4.7-1.5,1-2.5.6-.9-.4-1.4-1.1-1-1.6.3-.6-.2-1.1-1.2-1.1-7.2-.5-8.9-.5-10,.3-.7.6-1.4.4-1.9-.3-.5-.8-.3-.9.6-.4.9.5,1.1.4.6-.3-.9-1.5-3.3-1.5-3.9,0-.3.8-.5.7-.6-.3,0-1.7-3.7-2.4-4.6-.9-.3.5-1.1.9-1.8.9-.7,0-.6-.4.3-1,1.3-.9,1.3-1,0-1.1-.8,0-1.9,0-2.4,0-.5,0-1.5-.4-2.2-1-.8-.6-1.4-.8-1.4-.4s-.8.1-1.7-.6c-1.2-.9-1.5-1-.9-.1,1,1.7-7.1,1-8.7-.8-.9-1-.7-1,1.1,0,1.3.7,2.2.8,2.2.2,0-1.5-3.2-1.8-5.9-.7-1.8.8-2.5.7-2.8-.2-.8-2.3-3.5-4.3-4.9-3.8-.8.3-1.1.1-.8-.4.3-.6-.5-1-1.9-1s-3.1-.6-3.8-1.2c-1.6-1.5-5.3-2.3-4.5-1,.3.5-.1,1.8-1,2.8-1.5,1.8-1.5,1.8-.9-.2.8-3-.4-5.4-2.6-5.4s-1.7-.4-1.2-1.2c.5-.7.3-.9-.5-.4-.7.4-2,0-3.1-.9s-2.4-1.4-3.1-.9c-.8.5-1,.3-.5-.4.4-.6.2-1.2-.5-1.2s-1.8-.8-2.6-1.8c-1.2-1.6-1.3-1.5-.4.8.7,2,.6,2.6-.5,2.6s-2-2.4-1.5-5c0-.5-.3-.5-.9-.2-.6.3-1,.1-1-.5s-.5-.8-1-.5-1,.1-1-.4-.9-1.1-2-1.1-2.3-.7-2.6-1.5c-.3-.8-1-1.2-1.5-.9-.5.3-.9,0-.9-.5s-.7-1.1-1.5-1.1-1.4-.5-1.2-1.1c.1-.6-.4-1.4-1.1-1.6-.9-.3-1.1,0-.6.8.5.9.4,1-.4.5-.7-.4-1-1.4-.7-2.1.3-.8,0-1.7-.6-2.1-.6-.4-.8-.2-.5.4.4.6,0,1.3-.9,1.6-1.2.4-1.5,0-1.2-1.6.2-1.6-.3-2.3-1.7-2.6-1.1-.2-2.5-.8-3-1.3-.6-.6-.3-.7,1-.3q2,.7,0-.9c-1.4-1.1-2.4-1.3-3.3-.5-1,.8-1.1.7-.7-.4.3-.8-.4-2.6-1.6-3.9-1.2-1.3-1.9-1.9-1.5-1.3.3.6-.1,1.4-1,1.7-.9.3-1.3.2-1-.3.3-.5,0-1.1-.7-1.4-1-.4-1-.7,0-1.4,1-.7,1-1.2-.2-2.2-.8-.7-2.2-1-3-.7-.8.3-2-.2-2.8-1.1-1.2-1.6-1.2-1.6.6-.2,1.8,1.4,1.9,1.3,1.2-.3-.4-1-.7-2.4-.7-3,0-.7-.4-.5-1,.3-.8,1.2-1,1-1-1,0-1.9-.2-2.2-.9-1-.5.8-.7,1.8-.4,2.2.3.4,0,.8-.6.8s-.8-1-.5-2.4c.6-2.5-1.6-7.9-3.8-9.3-.7-.4-.4.6.6,2.2l1.9,3-2.2-1.9c-1.2-1-2.2-3.1-2.2-4.5v-2.6s-2,2.4-2,2.4c-1.1,1.3-2,1.9-2,1.3s.5-1.3,1-1.7,1-1.1,1-1.6-.5-.7-1-.4-1-.1-1-1,.5-1.3,1-1c1.8,1.1,1.1-.4-1.2-2.5-1.7-1.6-2.4-1.7-3.1-.8-.5.8-.6.4-.2-1,.4-1.5,0-3.3-1.1-5-1-1.5-1.8-3.4-1.9-4.3,0-.9-1.1-3.1-2.4-5-1.2-1.9-2-2.6-1.7-1.6.3,1.1.2,1.5-.4,1.2-.5-.3-1-1.1-1-1.7s-.8-2-1.7-3c-1.5-1.6-1.5-1.8-.1-1.3,1.9.7,3.6-1.4,1.9-2.4-.6-.4-1.2-1.6-1.4-2.8-.2-1.2-1-2.9-1.8-3.9-1.3-1.6-1.3-1.7,0-.9,1.3.8,1.3.7,0-1-.8-1-1.4-2-1.2-2.2.7-1,0-3.4-1.3-4.8-1.2-1.2-1.2-1.6-.2-1.6.8,0,.7-.4-.4-1.1-1.2-.7-1.5-1.5-.9-2.6,1-1.9.3-5.5-1-4.7-.5.3-.9,0-.9-.5s.6-1.1,1.2-1.1c.8,0,.8-.3-.2-.9-.8-.5-1.2-1.3-.8-1.6.4-.4.2-1.3-.4-2.1-.6-.7-.8-1.3-.4-1.3s.1-.8-.6-1.7c-1.2-1.4-1.2-1.6,0-.8,1.1.6,1.3.4.8-.8-.3-.9-.2-1.9.3-2.2s.7-1.6.4-2.8-.6-2.7-.7-3.2c-.1-.6-.6-1.5-1-2.2s-.5-2.3-.1-3.8c.4-1.4.2-2.5-.3-2.5s-.8-1.5-.7-3.2c0-1.8.3-3.2.4-3.2.7,0,.6-4.7-.1-5.1-.5-.3-.8-1.4-.8-2.5s.4-1.8.9-1.5c1,.6.9-7-.2-8-1-1-.9-3.6,0-3,1,.6.9-7.5-.2-9.1-.5-.8-.3-1.3.5-1.3,1,0,.9-.3-.2-1-.9-.6-1-1-.3-1,.7,0,1.2-1.2,1.1-2.8,0-1.5.2-3.7.6-4.8.5-1.4.5-1.6-.2-.7-1.4,1.9-2.3-2-1-4.2.6-1.2.5-2.2-.4-3.3-1.1-1.4-1.1-1.5,0-.8,1.1.7,1.2,0,.8-3.4-.3-2.3-.8-4.6-1.1-5-.3-.5,0-1,.6-1.2,1.4-.5,1.9-4.8.5-4.5-.5.1-1.2-.4-1.4-1.1-.3-.7.1-1.2.8-1,1.7.4,2.2-9.4.5-10.5-.8-.5-.8-.7.1-.8.9,0,1.2-1.3,1.1-4-.1-2.2-.6-4-1-4s-.4-1.1.2-2.5c.7-1.8.6-2.5-.3-2.5-.9,0-.9-.2-.1-.8,1.3-.9,1.4-10.5,0-11.4-1.3-.9-1.6-7.9-.4-7.9s.4-.7-.3-1.5c-1-1.2-1-1.8,0-2.8,1-.9,1.1-.8.6.8-.5,1.5-.4,1.6.3.5,1-1.6.8-7-.4-10.9-.5-1.6-.4-2.2.3-1.8.6.4,1-.4,1-1.8s-.4-2.2-1-1.9c-.5.3-.5-.4.2-1.5,1-1.8.9-2.1-.7-2.2-1.7,0-1.7,0,0-1,1-.6,1.8-1.5,1.8-2.1s-.5-.7-1.4,0c-1.1.9-1.6.9-2.2,0-.5-.8-.3-.9.6-.4,1,.6,1.2.4.7-.8-.4-1-.2-1.4.6-1.2.9.3,1.2-2,1.3-8.6,0-5-.3-9-.8-9s-.6-.5-.3-1c1.2-1.9,1.2-12.5.1-13.9-.7-1-.8-1.2,0-.8,1.6.9,1.1-2.8-.6-4.9-1.3-1.6-1.3-1.7.3-1.1,1.2.4,1.8.2,1.8-.9s-.5-1.3-1.2-.8c-1,.6-1,.4,0-.6,1.6-1.7,1.7-5.3,0-4.4-.8.5-.9.3-.3-.6.4-.7.9-4.4,1-8.2.1-3.8-.1-6.4-.5-5.8-.5.8-.9.7-1.3-.4-.3-.9-.1-1.5.5-1.3.6.1,1.3-.4,1.6-1.2.3-.8,0-1.1-.5-.7-1.1.7-1.1-1.9,0-3s.8-3.6-1.1-5.8c-1.7-2-1.7-2,0-.7,1.5,1.2,1.8,1.1,1.8-.3s-.6-1.6-1.2-1.6c-.9,0-.9-.2.1-.9,1.5-1,.7-7.1-.9-7.1s-.9-.7-.9-1.6.4-1.3.9-1c.5.3,1.2-.1,1.5-1,.3-.9,0-1.8-.9-2.1-2-.8-1.9-2.4.2-2.4s1.4-.2-.2-1.5c-1.3-1-1.5-1.4-.5-1.2.9.2,1.6-.7,1.8-2,.2-1.4-.1-2.2-.9-2-.7.2-1.4-.6-1.7-1.6-.3-1.4,0-1.7,1.1-1.3,1.1.4,1.4,0,1-1.3-.3-1.1-.8-1.7-1.2-1.5-.4.2-.7-.4-.8-1.5-.2-2.1,1.3-2.6,2-.7.2.7.4,0,.5-1.6,0-2.1-.2-2.5-.9-1.5-.7,1-.8.8-.3-.6,1.3-3.7,1.6-6.7.6-6.1-.5.3-1.2,0-1.5-.9-.3-.8-.2-1.7.3-2s1.1,0,1.4.7c.4.9.5.9.6-.2,0-.8-.7-2.3-1.7-3.5-1.7-2-1.7-2,0-.7,1.6,1.2,1.8,1.1,1.8-1.9s-.4-3.1-1.4-2.7c-1,.4-1.4,0-1.3-1.3,0-1.2.5-1.6,1.2-1,.7.6,1.1-.7,1.3-3.6.2-2.5-.1-4.3-.6-4-.5.3-.9,0-.9-.9s.3-1.2.7-1,.7-.9.7-2.5-.4-2.7-1.1-2.3c-.6.4-.6,0,.1-.8.7-.9.9-2,.3-2.9-.5-.8-.6-1.9-.2-2.5,1-1.7,1.1-3.6.1-3-.5.3-.9,0-.9-.5s.4-1.1.8-1.1c1.1,0,.9-8.3-.2-9.1-.5-.3-.3-1.6.3-2.8.9-1.7.9-2.5-.1-3.8-1-1.2-1-1.4,0-.9.9.5,1.2,0,1.2-1.8s-.5-2.6-1.1-2.6-.7-.5-.3-1.2c1.2-2,1.4-11,.2-10.2-.7.5-.8.2-.2-.7,1.4-2.1,1.4-15,0-14.2-.7.4-.6,0,0-.8,1.7-2.1,1.3-11-.5-13.2-.8-1-1-1.8-.4-1.8s1.3.6,1.6,1.2.4-.4.2-2.3c-.2-2-.7-4.2-1.1-4.9-.5-.9-.4-1.1.3-.6.7.4,1.2,0,1.2-.8s-.6-1.7-1.2-2c-1-.4-1-.5,0-.6,1.7-.1,1.6-5.1,0-5.1s-1.3-.6-1.3-1.4.6-1.2,1.3-.9c.7.3,1.3,0,1.3-.6s-.6-1.1-1.2-1.1c-.9,0-.8-.3.2-.9,1.1-.7,1.2-1.2.2-2.4-1-1.2-1-1.6,0-2,1-.4,1-.8.1-1.7-.9-1-.9-1.7,0-3.2,1-1.6.8-2.2-.8-3.5-1.6-1.3-1.7-1.5-.2-1,1,.3,1.8.2,1.8-.4s-.5-1-1-1-1-.5-1-1.1.4-.8.9-.5c.5.3.9-2.1.9-5.4,0-3.6-.4-5.9-1-5.7-.6.1-1.2-.5-1.5-1.3-.4-1.2-.3-1.2.5-.1,1.5,2.1,2.1,0,2-6.7,0-5.3-.3-6.1-1.7-5.7-1.4.5-1.4.4,0-.7,1.2-1,1.6-3,1.6-8s-.4-6.5-.8-6.2-1.1,0-1.5-.7c-.4-.7-.3-.9.4-.5.6.4,1.4-.2,1.7-1.3.8-2.5.3-9.1-.7-9.7-.4-.3-.8-1-.8-1.7,0-.7.4-.6,1,.3.7,1.1,1,.7,1-1.7,0-1.8-.4-3.5-1-3.8s-1-1.2-1-1.8c0-.7.4-.6.9.3.6,1,.9.2.9-2.7,0-2.3-.5-3.9-1-3.6-1.2.8-.6-1.9.6-2.8.6-.5.5-.7-.2-.8-.7,0-1.2-.9-1.2-2s.4-2,.8-2,.8-.7.8-1.5-.5-1.5-1.1-1.5c-.6,0-.5-.4.3-.9,1.7-1.1,1.7-2.2,0-3.2-1-.7-1-.9,0-.9.9,0,.9-.7-.4-2.8-1.5-2.5-1.5-2.5,0-.8,1.2,1.5,1.6,1.6,1.6.5s-.5-2-1.2-2.7c-.7-.7-.8-1.2-.1-1.2s1-2.5,1-6.2c0-3.4-.2-5.7-.4-5-.6,1.7-2.3,1.6-2.3-.1s.7-1.7,1.5-2c2-.8,2-9.4,0-13.2-1.5-2.8-1-5.8.5-3.3.5.8.7-2.4.5-7.3-.2-4.8-.6-9.1-1-9.6-.3-.5,0-2.5.5-4.3.9-2.5.9-3.4,0-3.7-.6-.2-1.2-.8-1.2-1.4s.4-.7.8-.5c.5.3.8-6.7.8-15.4,0-8.8-.4-16-.8-16s-.8-.9-.8-2,.4-2,.8-2,.8-2.5.9-5.5c0-3.7-.3-5.3-1.1-4.8-.6.4-.6,0,.1-.9,1.7-2.2,1.2-31.5-.5-31.1-1.6.3-1.5-.9.3-3.3,1.7-2.3,2-5.9.4-4.9-.8.5-.8.1,0-1.4,1.5-2.8,1.4-7.2-.2-7.2-.8,0-.9-.3-.2-.8,1.3-.9,1.5-14.2.2-14.2s-.6-.5-.3-1,0-1-.6-1-.6-.6.4-1.8c1.2-1.3,1.3-2.1.5-2.9-.6-.6-.8-1.7-.3-2.3,1.2-1.9,1.6-15.7.5-16.4-.5-.3-1-1.1-1-1.6s.4-.7,1-.4c.6.3.7,0,.4-.9-.3-.9-1.1-1.6-1.7-1.6-.7,0-.6-.3.2-.9,1-.6,1.3-3.2,1-10.4-.2-5.2,0-9,.4-8.4.5.7.7.5.8-.6,0-1-.5-1.8-1-1.8s-.8-.5-.4-1,0-1-.7-1c-.9,0-1-.2-.2-.8,1.7-1.1,2.4-7.4.8-6.8-.8.3-1.1,0-.7-1.1.4-1.1.2-1.4-.6-.9-.6.4-1.2.2-1.2-.3s-.7-1.1-1.5-1.1-1.2.6-.9,1.6c.5,1.4.3,1.4-3.2,0-4.1-1.7-3.9-1.7-7.5-.6M1168.8,347.7c.7.3,1.6.3,1.9,0s-.3-.6-1.3-.5c-1.2,0-1.4.3-.6.6M540.5,349c.3.5.8,1,1.1,1s.4-.5.4-1-.5-1-1.1-1-.8.5-.4,1M530.5,351c-.3.5.3,1,1.4,1s2.1-.5,2.1-1-.6-1-1.4-1-1.7.5-2.1,1M1186.5,351c.3.5,1.3,1,2.1,1s1.2-.5.9-1-1.3-1-2.1-1-1.2.5-.9,1M552.1,353.6c0,1.2.3,1.4.6.6.3-.7.3-1.6,0-1.9-.3-.3-.6.3-.5,1.3M497.2,357.2c1.6,1,5.8,1.1,5.8,0,0-.4-1.6-.8-3.5-.8-2.2,0-3,.2-2.2.7M906.6,358.5c-1.1.8-1.5,1.5-.9,1.5s1.6-.7,2.3-1.5c1.6-1.9,1.1-1.9-1.4,0M470.9,365.6c-1.3,1.6-.6,2.9,1.1,1.9.6-.4.8-1.1.5-1.6-.4-.6.4-.7,1.9-.4,1.4.3,2.7.2,3-.2.9-1.5-5.2-1.2-6.4.3M889,366c-.9.6-1,1-.3,1,.7,0,1.5-.4,1.8-1,.8-1.2.4-1.2-1.5,0M454,372.6c-1.7.9-2,1.4-.9,1.4.9,0,2.2-.7,2.9-1.5,1.5-1.8,1.3-1.8-2,0M462,372.6c0,.9.5,1.3,1,.9s1-1,1-1.6-.5-.9-1-.9-1,.7-1,1.6M878,372.2c0,1,1.2,1,3-.2,1.2-.7,1-.9-.8-.8-1.2,0-2.2.5-2.2,1M446,380.5c0,1-.5,1.3-1.2.9-.7-.4-.9-.3-.5.4.7,1.2,3.6.5,3.6-.9s-.5-1.1-1-1.5-1,.1-1,1M871.5,381.1c-1,1.7-.1,1.9,1.3.3.7-.8.8-1.4.3-1.4s-1.3.5-1.6,1.1M1260.2,381.9c-1.1.7-1,1,.4,1.5,1,.4,2,.4,2.3.1.3-.3-.1-.6-.9-.6-.8,0-.6-.4.6-.9,1.3-.6,1.5-.9.5-.9-.8,0-2.1.3-2.8.8M428.7,386.7c-1,1-.8,2.1.6,2.6.8.3,1.3-.3,1.3-1.4,0-1.9-.7-2.4-1.9-1.2M424.5,390c-.9,1.5.4,2.5,1.6,1.2s.7-1.3,0-1.7c-.6-.3-1.3-.1-1.7.5M1272.7,390.6c.3.8,1.6,1.4,3,1.4,2,0,2.2-.3,1.2-1.3-1.7-1.8-4.9-1.9-4.2-.1M422.5,394.1c-.4.6-.4,1.3-.2,1.5.3.3.7-.2,1.1-1.1.7-1.8.1-2.1-.9-.5M417,396.1c-2.2,1.8-2.2,1.9-.3,1,1.2-.6,2.5-1.5,2.8-2.1.9-1.5.3-1.2-2.5,1.1M835.5,397c.3.5.8,1,1.1,1s.4-.5.4-1-.5-1-1.1-1-.8.5-.4,1M420.7,398.1c.7.7,1.5,1,1.8.7.3-.3-.2-.9-1.2-1.2-1.4-.5-1.5-.4-.6.6M827.5,403c-.4.6,0,.7.9.4,1.7-.7,2-1.4.6-1.4s-1.2.4-1.6,1M409.3,404.7c-1.2.2-2.8,1.2-3.5,2.1-1.2,1.5-1.2,1.6.5.3,1.1-.8,2.1-1,2.5-.5,1.3,1.8,3.7,1.5,3.9-.6,0-1.1-.2-1.9-.5-1.9-.4,0-1.7.3-2.9.6M830.4,406c0,1.3.3,1.6,1,1,.6-.6.6-1.3,0-2-.6-.6-1-.3-1,1M1297.1,407.7c.7,1.2,1.5,2,1.8,1.7.3-.3-.3-1.3-1.3-2.2-1.7-1.6-1.7-1.6-.5.5M822,407.9c0,.5.4,1.2,1,1.6.6.3.7,0,.4-.9-.7-1.7-1.4-2-1.4-.6M1307,409.6c0,.9.5,1.3,1,.9.6-.3.8-1,.4-1.6-.9-1.4-1.5-1.1-1.5.6M1304,412.4c0,.2.8,1,1.8,1.8,1.6,1.2,1.6,1.2.4-.4-1.3-1.7-2.1-2.2-2.1-1.4M407,415c0,.5.7,1,1.5,1s1.5-.5,1.5-1-.7-1-1.5-1-1.5.5-1.5,1M1321.6,422.7c-.5,1.4-.4,1.5.6.6.7-.7,1-1.5.7-1.8-.3-.3-.9.2-1.2,1.2M383,431c0,.5.7.7,1.5.4.8-.3,1.5-.8,1.5-1s-.7-.4-1.5-.4-1.5.4-1.5,1M814,431c0,.5.5,1,1,1s1-.5,1-1-.5-1-1-1-1,.5-1,1M1330.5,436c-.3.5,0,1,.9,1s1.6-.5,1.6-1-.4-1-.9-1-1.2.5-1.6,1M790.5,436.9c-.3.5-.2,1.2.3,1.5.5.3.8-.1.8-.9,0-1.7-.3-1.8-1.1-.5M546.7,437.7c-1.2,1.1-.7,2.3.8,2.3s1.5-.7,1.5-1.5c0-1.6-1.2-2-2.3-.8M380,439c-.9.6-1,1-.3,1,.7,0,1.5-.4,1.8-1,.8-1.2.4-1.2-1.5,0M1346.5,443.8c.2,1,.4,2.2.4,2.7,0,.5.6.4,1.2-.2,1.2-1.2.5-4.3-1-4.3s-.8.8-.6,1.8M374.7,445.7c-.4.4-.7,1.1-.7,1.7s.5.6,1.2-.1c.7-.7,1-1.4.7-1.7s-.8-.2-1.2.1M1352.3,453.9c0,1.1.5,1.7.9,1.5.4-.3.5-1.1.2-1.9-.8-2-1.3-1.8-1.1.5M1344,458c0,.5.4,1,1,1s1-.5,1-1-.4-1-1-1-1,.5-1,1M774.5,460c-.3.5,0,1,.9,1s1.6-.5,1.6-1-.4-1-.9-1-1.2.5-1.6,1M365.8,461.7c.7.3,1.6.3,1.9,0s-.3-.6-1.3-.5c-1.2,0-1.4.3-.6.6M754.5,475c-.3.5-.2,1,.4,1s1.3-.5,1.6-1,.2-1-.4-1-1.3.5-1.6,1M758,478.5c.7.8,1.5,1.3,1.7,1.1.7-.7-.7-2.6-1.9-2.6s-.6.6.2,1.5M750,484.6c-.8,2.2-1.2,2.4-2.5,1.4-1.8-1.5-2.7-.9-1.5,1,1.2,2,5.6-.4,5.6-3s-.4-2.4-1.6.7M742.5,491c-1.8.8-1.7.9.8.9,1.5,0,2.8-.4,2.8-.9,0-1.2-.8-1.2-3.5,0M749,495c0,.5.5,1,1.1,1s.8-.5.4-1-.8-1-1.1-1-.4.5-.4,1M343,526.6c0,.9.5,1.3,1,.9.6-.3.8-1,.4-1.6-.9-1.4-1.5-1.1-1.5.6M1408.4,530c0,1.3.3,1.6,1,1,.6-.6.6-1.3,0-2-.6-.6-1-.3-1,1M715.5,533.9c-.3.5-.1,1.2.4,1.6.6.3,1,0,1-.9,0-1.8-.6-2-1.5-.6M552.5,541c.3.5.8,1,1.1,1s.4-.5.4-1-.5-1-1.1-1-.8.5-.4,1M551.5,544c-1,1.5.4,2.5,1.6,1.2s.7-1.3,0-1.7c-.6-.3-1.3-.1-1.7.5M1014.5,545c.3.5.8,1,1.1,1s.4-.5.4-1-.5-1-1.1-1-.8.5-.4,1M1023.6,546.5c-.3.9.3,1.9,1.6,2.7,2,1.1,2.1,1,.8-.5-1-1.2-1-1.7-.2-1.7s.9-.5.6-1c-.9-1.4-2.2-1.2-2.9.5M1092.9,546.8c-1.2,1.6-1.2,1.6.4.4,1.7-1.3,2.2-2.1,1.4-2.1s-1,.8-1.8,1.8M1028.5,547c-.3.5-.2,1,.4,1s1.3-.5,1.6-1,.2-1-.4-1-1.3.5-1.6,1M1114,547c0,.5.6,1,1.4,1s1.7-.5,2.1-1-.3-1-1.4-1-2.1.5-2.1,1M709.6,551.2c.3.5.9.6,1.5.3,1.3-.8,1.2-1.1-.5-1.1s-1.2.4-.9.8M1419.2,552.2c.7,1.5,1.4,2.2,1.6,1.6.2-.6-.4-1.8-1.3-2.7-1.5-1.5-1.5-1.4-.4,1.1M997,553c-1.3.8-1.2,1,.2,1,1,0,1.8-.4,1.8-1,0-1.2-.1-1.2-2,0M1000.2,552.5c.4.5.2,1.4-.4,2.2-.9,1.1-.8,1.2.5.7,2-.8,2.1-2,.4-3-.7-.4-.9-.4-.5,0M550,558c0,.5.5,1,1.1,1s.8-.5.4-1-.8-1-1.1-1-.4.5-.4,1M1416,559c0,.5.4,1,1,1s1-.5,1-1-.4-1-1-1-1,.5-1,1M1136.6,560.9c-.3.5.3.7,1.4.4,2.3-.6,2.6-1.3.6-1.3s-1.7.4-2,.9M1142.5,560.9c-.3.5-.2,1.2.3,1.5s.8-.1.8-.9c0-1.7-.3-1.8-1.1-.5M982,562c0,.5.7.7,1.5.4.8-.3,1.5-.8,1.5-1s-.7-.4-1.5-.4-1.5.4-1.5,1M976.7,565.4c-.4,1,0,1.3.9.9,1.6-.6,2-2.3.6-2.3s-1.1.7-1.4,1.4M1144.5,565c-.3.5-.1,1,.4,1s1.1-.5,1.1-1-.2-1-.4-1-.7.5-1.1,1M961.7,569.8c-.3.4.6.8,1.8.8s2.1-.3,1.8-.8c-.3-.4-1.1-.8-1.8-.8s-1.6.3-1.8.8M961.1,575.6c0,1.2.3,1.4.6.6.3-.7.3-1.6,0-1.9-.3-.3-.6.3-.5,1.3M1166.6,577.2c.3.4,1.1.8,1.9.8s1.4-.4,1.4-.8-.9-.8-1.9-.8-1.7.4-1.4.8M1171.9,577.8c-1.2,1.6-1.2,1.6.4.4,1-.8,1.8-1.5,1.8-1.8,0-.8-.8-.3-2.1,1.4M1174.4,581.1c-.4.6-.3,1.5.2,2s.9,0,.9-1.1c0-2.3-.2-2.4-1.1-.9M544,587c0,.5.5,1,1,1s1-.5,1-1-.5-1-1-1-1,.5-1,1M692.9,587.8c-1.3,1.6-1.2,1.6.6.3,1.1-.8,2.2-1.6,2.4-1.8s0-.3-.6-.3-1.7.8-2.4,1.8M944.3,588.5c0,.8.4,1.2.8.9.5-.3.8-.9.8-1.5s-.4-.9-.8-.9-.8.7-.8,1.5M936.5,592.9c-.3.5,0,1.3.6,1.7.7.4.9.3.5-.3-.4-.6,0-1.3.6-1.6.9-.4.9-.5,0-.6-.7,0-1.5.3-1.8.9M1190.5,593c.3.5.8,1,1.1,1s.4-.5.4-1-.5-1-1.1-1-.8.5-.4,1M928.3,603.4c0,.8.6,1.2,1.3.9.7-.3,1.1-.9.8-1.4-.8-1.4-2.1-1.1-2.1.5M922.5,609c.3.5,0,1.1-.5,1.5-.6.3-1,1.1-1,1.7s.9,0,2.1-1.3c1.6-1.8,1.9-1.9,1.5-.6-.4,1.1-.2,1.6.5,1.2,1.5-.9.6-2.7-1.4-3-.9-.1-1.5.1-1.2.6M923,613.9c0,.7-.5.9-1.2.5-.7-.5-.9-.3-.4.5.5.9,1.1.9,1.8.2s.8-1.4.4-1.8c-.4-.4-.7-.1-.7.5M685.7,615.4c-.3.8.1,1.7.9,2,.8.3,1.4,0,1.4-.9,0-2-1.7-2.8-2.3-1.1M684.6,619.5c-.3.9-1.1,1.3-1.8.9-.8-.5-.9-.3-.4.5.6,1,1.1.9,2.3-.3.9-.9,1.3-1.8,1-2.1-.3-.3-.8.2-1.2,1M546,620.6c0,.9.5,1.3,1,.9s1-1,1-1.6-.5-.9-1-.9-1,.7-1,1.6M552.5,621c-.3.5-.2,1.8.3,2.7.8,1.4.9,1.2.8-1-.2-3-.3-3.1-1.2-1.7M912,622c0,.5.5,1,1.1,1s.8-.5.4-1-.8-1-1.1-1-.4.5-.4,1M912.9,625.2c-.5,1.8-.6,3.8-.2,3.3.7-.7,1.2-3.6.6-3.6s-.4.1-.5.2M679.5,637c.3.5,1,1,1.6,1s.9-.5.9-1-.7-1-1.6-1-1.3.5-.9,1M684,637c0,.5.5,1,1,1s1-.5,1-1-.5-1-1-1-1,.5-1,1M552.6,638.3c.4,1,.9,1.5,1.2,1.2.3-.3,0-1.1-.7-1.8-1-1-1.1-.9-.6.6M904.6,639.7c-.5,1.4-.4,1.5.6.6.7-.7,1-1.5.7-1.8-.3-.3-.9.2-1.2,1.2M907.1,639.6c0,1.2.3,1.4.6.6.3-.7.3-1.6,0-1.9-.3-.3-.6.3-.5,1.3M1222,639.9c0,.7-.4.9-1,.6s-1,.2-1,1.2c0,1.7.1,1.7,1.7,0,.9-.9,1.4-2,1-2.4-.4-.4-.7-.1-.7.5M677.5,644c-.3.5-.1,1,.4,1s1.1-.5,1.1-1-.2-1-.4-1-.7.5-1.1,1M550,645c0,.6.7,1.8,1.5,2.7,1.3,1.3,1.5,1.3,1.2-.8-.4-2.3-2.7-4-2.7-1.9M677.5,647.1c-.4.6-.4,1.3,0,1.7.3.3.6,0,.6-.6s.5-.9,1.2-.5c.7.4.9.3.4-.4-.9-1.4-1.3-1.4-2.1,0M552.6,651.3c.4,1,.9,1.5,1.2,1.2.3-.3,0-1.1-.7-1.8-1-1-1.1-.9-.6.6M1226.5,659.9c-.3.5-.1,1.2.4,1.6.6.3,1,0,1-.9,0-1.8-.6-2-1.5-.6M897.5,663c.3.5.8,1,1.1,1s.4-.5.4-1-.5-1-1.1-1-.8.5-.4,1M1228,667.4c0,.8.4,1.7.9,2,.5.3.7-.3.4-1.4-.6-2.3-1.3-2.6-1.3-.6M1230.1,674.6c0,1.2.3,1.4.6.6.3-.7.3-1.6,0-1.9-.3-.3-.6.3-.5,1.3M334.4,675.1c-.4.6-.3,1.5.2,2s.9,0,.9-1.1c0-2.3-.2-2.4-1.1-.9M545,681c0,.5.5,1,1.1,1s.8-.5.4-1-.8-1-1.1-1-.4.5-.4,1M333.6,702.9c-.3.5.1,1.4.9,2.1,1.2,1,1.5.9,1.5-.9s-1.4-2.9-2.4-1.2M668.7,705.1c.7.7,1.5,1,1.8.7.3-.3-.2-.9-1.2-1.2-1.4-.5-1.5-.4-.6.6M549.5,709c-.3.5-.1,1,.4,1s1.1-.5,1.1-1-.2-1-.4-1-.7.5-1.1,1M551.5,715c.3.5,1,1,1.6,1s.9-.5.9-1-.7-1-1.6-1-1.3.5-.9,1M679.5,722c-.4.6,0,.7.9.4,1.7-.7,2-1.4.6-1.4s-1.2.4-1.6,1M684,725.9c0,.5.7,1.2,1.6,1.5,1.4.5,1.4.4.4-.9-1.4-1.7-2-1.9-2-.6M544,727c0,.5.5,1,1.1,1s.8-.5.4-1-.8-1-1.1-1-.4.5-.4,1M552.3,728.5c0,.8.4,1.2.8.9.5-.3.6-.9.3-1.5-.8-1.3-1.1-1.2-1.1.5M688,728.4c0,.2.8,1,1.8,1.8,1.6,1.2,1.6,1.2.4-.4-1.3-1.7-2.1-2.2-2.1-1.4M692,728.7c.6.3.8.9.5,1.4-.3.5-.1,1.1.4,1.4.5.3.8-.2.7-1.1-.1-.9-.8-1.8-1.4-1.9-.7-.1-.7,0-.2.3M334.4,732.1c-.4.6-.3,1.5.2,2,.5.5,1,0,1.1-1.1.2-2.2-.3-2.5-1.3-.9M889.1,740.6c0,1.2.3,1.4.6.6.3-.7.3-1.6,0-1.9-.3-.3-.6.3-.5,1.3M710.6,743.7c-.3.3-.3,1,0,1.4.7,1.1,3.4,1.1,3.4,0s-2.6-2.2-3.4-1.4M333.5,756.1c1,3.4,2.3,4.5,1.8,1.4-.3-1.4-.9-2.9-1.5-3.2-.6-.4-.7.3-.3,1.8M550,755c0,.5.5,1,1,1s1-.5,1-1-.5-1-1-1-1,.5-1,1M732.7,759.7c-.4.4-.7,1.1-.7,1.7s.5.6,1.2-.2c.7-.7,1-1.4.7-1.7-.3-.3-.8-.2-1.2.1M334.6,763.5c.3.8.8,1.5,1,1.5s.4-.7.4-1.5-.4-1.5-1-1.5-.7.7-.4,1.5M551.2,763.2c-1.4,1.4-1.6,2.8-.3,2.8s1.1-.9,1.4-2c.6-2.3.5-2.4-1.1-.8M745.3,771.5c0,.8.4,1.5.8,1.5s.8-.7.8-1.5-.4-1.5-.8-1.5-.8.7-.8,1.5M550,784.9c0,.5.7,1.1,1.4,1.4,1,.4,1.3,0,.9-.9-.6-1.6-2.3-2-2.3-.6M764.6,785.2c.7,1.1,3.4,1,3.4-.1s-.9-.9-1.9-.8c-1.1,0-1.7.5-1.4.9M778.5,785c.3.5.8,1,1.1,1s.4-.5.4-1-.5-1-1.1-1-.8.5-.4,1M547,790c-.8.5-1.1,1.2-.7,1.6.4.4,1.3.2,1.9-.4,1.5-1.5.7-2.4-1.2-1.2M777,793c-.9.6-1,1-.3,1,.7,0,1.5-.4,1.8-1,.8-1.2.4-1.2-1.5,0M782.7,793.7c-.4.4-.7,1.1-.7,1.7s.5.6,1.2-.2c.7-.7,1-1.4.7-1.7-.3-.3-.8-.2-1.2.1M782,799.1c0,.6.5.8,1,.4s1-.8,1-1.1-.5-.4-1-.4-1,.5-1,1.1M814,817c-.9.6-1,1-.3,1,.7,0,1.5-.4,1.8-1,.8-1.2.4-1.2-1.5,0M819.5,825.1c-.3.5,0,.9.7.7.7-.2,1.2.2,1.1.8-.1.6.4,1.1,1.2,1.1,1.7,0,.9-2.3-1-3-.8-.3-1.7,0-2,.4M837,836.1c0,.6.5.8,1,.4s1-.8,1-1.1-.5-.4-1-.4-1,.5-1,1.1M552.4,842.1c0,1.1.4,1.9.8,1.9s.8-.6.8-1.4-.4-1.7-.8-1.9c-.4-.3-.8.4-.8,1.4M334,842.9c0,1.1.5,2.1,1,2.1s1-.6,1-1.4-.5-1.7-1-2.1-1,.3-1,1.4M549,847c0,.5.5,1,1.1,1s.8-.5.4-1-.8-1-1.1-1-.4.5-.4,1M552.4,852c0,1.3.3,1.6,1,1s.6-1.3,0-2-1-.3-1,1M862,851c0,.5.5,1,1,1s1-.5,1-1-.5-1-1-1-1,.5-1,1M853,851.7c0,.6.8,1.7,1.8,2.4,1.6,1.3,1.6,1.2.3-.6-.8-1.1-1.6-2.2-1.8-2.4-.2-.2-.3,0-.3.6M889.1,854.6c0,1.2.3,1.4.6.6.3-.7.3-1.6,0-1.9-.3-.3-.6.3-.5,1.3M1230.7,855.6c-.4.4-.7,1.4-.7,2.3s.3,1.2,1.1.4c.6-.6.9-1.6.7-2.3-.2-.6-.7-.8-1.1-.4M866,862c0,.5.5,1,1.1,1s.8-.5.4-1-.8-1-1.1-1-.4.5-.4,1M870.1,862.6c0,1.2.3,1.4.6.6.3-.7.3-1.6,0-1.9-.3-.3-.6.3-.5,1.3M551.1,867.7c-.7.8-1.1,1.7-.9,1.9s1-.2,1.7-1.1c1.7-2,.9-2.7-.9-.8M882.1,874.8c.8,1.2,1.8,2.2,2.3,2.2s1.7.7,2.7,1.6c1.7,1.5,1.9,1.5,2.5,0,.8-2.1.3-2.7-2.7-2.8-1.3,0-3.2-.8-4.3-1.7-1.8-1.5-1.8-1.5-.5.7M893,904c0,.5.5,1,1.1,1s.8-.5.4-1-.8-1-1.1-1-.4.5-.4,1M334,907c1.2,2.3,2,2.5,2,.6s-.7-1.7-1.5-2c-1.2-.5-1.3-.2-.5,1.4M912.7,910.4c-.4,1,0,1.3.9.9.8-.3,1.2-1,.9-1.4-.8-1.2-1.1-1.1-1.8.6M919.6,910.5c.3.8,1,1.5,1.6,1.5s.5-.6-.2-1.5c-.7-.8-1.4-1.5-1.6-1.5s0,.7.2,1.5M929.6,916.9c-.3.5.3,1.6,1.3,2.5,1.5,1.4,1.9,1.4,2.4.3.3-.9,0-1.4-1.1-1.3-.9,0-1.6-.4-1.4-1.1.3-1.4-.4-1.7-1.2-.4M937.7,924.7c-.4.4-.7,1.1-.7,1.7s.5.6,1.2-.2c.7-.7,1-1.4.7-1.7-.3-.3-.8-.2-1.2.1M334,932.9c0,.5.5,1.3,1,1.6s1,.2,1-.4-.5-1.3-1-1.6-1-.2-1,.4M547,934.9c0,.5.5,1.3,1,1.6s1,.2,1-.4-.5-1.3-1-1.6-1-.2-1,.4M1230.6,935.7c-.5,1.4-.4,1.5.6.6.7-.7,1-1.5.7-1.8-.3-.3-.9.2-1.2,1.2M961.1,942.3c-1.3,2.1-1.2,2.1.5.5,1-1,1.6-1.9,1.3-2.2-.3-.3-1.1.5-1.8,1.7M952.5,943c-.3.5.1,1,1,1s1.3-.5,1-1-.8-1-1-1-.7.5-1,1M1230,944c0,1.9.3,2.1,1.2,1.2.9-.9.9-1.5,0-2.4-.9-.9-1.2-.7-1.2,1.2M977.5,956.1c-1,1.7-.1,1.9,1.3.3.7-.8.8-1.4.3-1.4s-1.3.5-1.6,1.1M334.5,957c.3.5.8,1,1.1,1s.4-.5.4-1-.5-1-1.1-1-.8.5-.4,1M1230,963c0,.5.4,1,1,1s1-.5,1-1-.4-1-1-1-1,.5-1,1M894,969.9c0,.5.4,1.2,1,1.6.6.4.7,0,.4-.9-.7-1.7-1.4-2-1.4-.6M1000.6,971.7c-.5,1.4-.4,1.5.6.6.7-.7,1-1.5.7-1.8-.3-.3-.9.2-1.2,1.2M1009,981.4c0,.2.7.9,1.5,1.6.9.7,1.5.8,1.5.2s-.7-1.3-1.5-1.6c-.8-.3-1.5-.4-1.5-.2M334.5,983c.3.5.8,1,1.1,1s.4-.5.4-1-.5-1-1.1-1-.8.5-.4,1M551.7,991c-2.2,2.5-2.2,2.9,0,2.7,1.1,0,1.8-1,1.9-2.4.2-2.8.2-2.8-1.9-.3M1448.1,997.6c0,1.2.3,1.4.6.6.3-.7.3-1.6,0-1.9-.3-.3-.6.3-.5,1.3M334,998c0,.5.5,1,1.1,1s.8-.5.4-1-.8-1-1.1-1-.4.5-.4,1M1040,1001.4c0,.2.7.9,1.5,1.6,1.3,1.1,1.4,1,.9-.4-.5-1.4-2.4-2.4-2.4-1.3M1046.3,1005.7c.4.2.5.8.2,1.3-.3.5.4.9,1.5.9s2.1-.5,2.1-1-.4-1-.9-1-1.5-.2-2.2-.3c-.7-.2-1-.1-.6,0M894,1008.6c0,.9.5,1.3,1,.9s1-1,1-1.6-.5-.9-1-.9-1,.7-1,1.6M1071.6,1024.2c.3.5.9.6,1.5.3,1.3-.8,1.2-1.1-.5-1.1s-1.2.4-.9.8M1072,1026.5c0,.6.4,1.7,1,2.5s1,1.1,1,.5-.4-1.7-1-2.5-1-1.1-1-.5M334,1029c0,.6.5,1,1,1s1-.4,1-1-.5-1-1-1-1,.4-1,1M1079,1029.4c0,.2.8,1,1.8,1.8,1.6,1.2,1.6,1.2.4-.4-1.3-1.7-2.1-2.2-2.1-1.4M1090.5,1036c.3.6.8,1,1.1,1s.4-.4.4-1-.5-1-1.1-1-.8.4-.4,1M894.3,1039.5c0,.8.4,1.2.8.9.5-.3.6-.9.3-1.5-.8-1.3-1.1-1.2-1.1.5M1096.6,1042.8c-.3.4.3.8,1.4.8s1.6-.4,1.4-.8c-.3-.4-.9-.8-1.4-.8s-1.1.4-1.4.8M1097.5,1045.9c-.3.5-.2,1.2.3,1.5.5.3.8-.1.8-.9,0-1.7-.3-1.8-1.1-.5M1100.6,1047.8c-.4.6-.2,1.3.4,1.7,1.5.9,2,.2,1-1.4-.5-.9-1-1-1.5-.3M1104,1050.1c0,.6.4.8,1,.4s1-.8,1-1.1-.4-.4-1-.4-1,.5-1,1.1M1090.5,1051c-.3.6-.1,1,.4,1s1.1-.4,1.1-1-.2-1-.4-1-.7.4-1.1,1M893.6,1054.8c-.3.5.1.8.9.8s1.2-.4.9-.8c-.3-.5-.7-.8-.9-.8s-.6.4-.9.8M1104.5,1055c-.3.6-.2,1,.4,1s1.3-.4,1.6-1,.2-1-.4-1-1.3.4-1.6,1M546,1067.1c0,.6.5.8,1,.4s1-.8,1-1.1-.5-.4-1-.4-1,.5-1,1.1M548,1071c0,.6.5,1,1.1,1s.8-.4.4-1-.8-1-1.1-1-.4.4-.4,1M1230.9,1090.2c-.6,2.1-.6,3.9.2,4.3.5.3.9-.6.9-2,0-2-.7-3.5-1.1-2.3M552.3,1092.5c0,.8.4,1.2.8.9.5-.3.8-.9.8-1.5s-.4-.9-.8-.9-.8.7-.8,1.5M554,1101.9c0,.5.4,1.2,1,1.6.6.3.7,0,.4-.9-.7-1.7-1.4-2-1.4-.6M886.4,1111.8c-.3,1-1,2.5-1.5,3.5-1.2,2.3-1.2,3.4,0,2.1,1.1-1.1,3.1-7.4,2.4-7.4s-.7.8-1,1.8M342,1113.9c0,.5.4,1.2,1,1.6.6.3.7,0,.4-.9-.7-1.7-1.4-2-1.4-.6M342.5,1120.1c-.4.6-.4,1.3-.2,1.5s.7-.2,1.1-1.1c.7-1.8.1-2.1-.9-.5M876.6,1132.9c-.3.5.3,1.1,1.4,1.4,1.3.3,2,0,2-.9,0-1.5-2.6-1.9-3.4-.5M566,1135c0,.6.5,1,1,1s1-.4,1-1-.5-1-1-1-1,.4-1,1M1230,1139c0,.6.4,1,1,1s1-.4,1-1-.4-1-1-1-1,.4-1,1M569.6,1142.7c-.5,1.4-.4,1.5.6.6.7-.7,1-1.5.7-1.8-.3-.3-.9.2-1.2,1.2M868,1146c0,.6.5,1,1.1,1s.8-.4.4-1-.8-1-1.1-1-.4.4-.4,1M1097.5,1152c-.3.6-.1,1,.4,1s1.1-.4,1.1-1-.2-1-.4-1-.7.4-1.1,1M350,1155.4c0,.8.4,1.7.9,2,.5.3.7-.3.4-1.4-.6-2.3-1.3-2.6-1.3-.6M1094,1157.5c0,1.6,1.6,2,2.4.6.3-.5-.1-1.2-.9-1.5-.9-.3-1.5,0-1.5.9M584.6,1167.1c.3.5,1.3.9,2.2.9,1.9,0,.9-1.3-1.3-1.6-.8-.1-1.2.2-.9.7M846.5,1172.1c-.4.6-.4,1.3-.2,1.5s.7-.2,1.1-1.1c.7-1.8.1-2.1-.9-.5M597.7,1173.7c-1.1,1.1-.8,2,.7,2s1.2-.6.9-1.3c-.6-1.5-.7-1.6-1.6-.7M592.6,1174.8c-.3.5.1.8.9.8s1.2-.4.9-.8c-.3-.5-.7-.8-.9-.8s-.6.4-.9.8M844.1,1179.6c0,1.2.3,1.4.6.6.3-.7.3-1.6,0-1.9-.3-.3-.6.3-.5,1.3M594,1181c0,.6.5,1,1,1s1-.4,1-1-.5-1-1-1-1,.4-1,1M602,1182.4c0,1,.8,1.6,2.2,1.6s2-.1,1.8-.3-1.2-.9-2.2-1.6c-1.5-1.1-1.8-1.1-1.8.3M827.3,1188.8c-3.8,2-4.2,3-.9,2.8,1.3,0,2.2-.5,2-.8-.2-.4.6-1.4,1.8-2.2,2.9-2,1.2-1.9-2.9.3M608.5,1191c.3.6.8,1,1.1,1s.4-.4.4-1-.5-1-1.1-1-.8.4-.4,1M823.7,1197.6c.6,1.6,2.3,2,2.3.6s-.7-1.1-1.4-1.4c-1-.4-1.3,0-.9.9M1084.5,1197c-.3.6-.1,1,.4,1s1.1-.4,1.1-1-.2-1-.4-1-.7.4-1.1,1M365.7,1201.4c-.9,2.4-.8,2.8.3,2.1.5-.3,1,0,1,.6s.2,1,.5.7c.3-.3.1-1.6-.3-2.8-.7-2-.9-2.1-1.5-.6M641.5,1205c.3.6.8,1,1.1,1s.4-.4.4-1-.5-1-1.1-1-.8.4-.4,1M801.7,1205.1c.7.7,1.5,1,1.8.7.3-.3-.2-.9-1.2-1.2-1.4-.5-1.5-.4-.6.6M662.5,1212c.3.6,1.1,1,1.6,1s.7-.4.4-1-1.1-1-1.6-1-.7.4-.4,1M798.5,1213c.3.6.8,1,1.1,1s.4-.4.4-1-.5-1-1.1-1-.8.4-.4,1M658.7,1214.1c.7.7,1.5,1,1.8.7.3-.3-.2-.9-1.2-1.2-1.4-.5-1.5-.4-.6.6M788,1215c-.9.6-1,1-.3,1,.7,0,1.5-.4,1.8-1,.8-1.2.4-1.2-1.5,0M1073.5,1217c.3.5,0,1-.6,1s-1,.3-.6.6c.3.3,1.3.2,2.3-.4,1.6-.9,1.6-1,0-1.6-1-.4-1.4-.2-1.1.4M1230.5,1217.1c-.4.6-.4,1.3-.2,1.5s.7-.2,1.1-1.1c.7-1.8,0-2.1-.9-.5M754.8,1218.7c.7.3,1.8.3,2.5,0,.7-.3.1-.5-1.2-.5s-1.9.2-1.2.5M687.3,1220.4c-1,1.1-.9,1.5.4,2,.9.3,2.1.1,2.7-.5.8-.8.6-.9-.7-.4-1.3.5-1.6.3-1.1-.9.7-1.9.3-2-1.3-.2M699.6,1221.9c-.3.5,0,1.1.9,1.4,1,.4,1.3,0,.9-.9-.6-1.7-1-1.8-1.8-.6M717.6,1221.9c-1.2.5-1.5,1-.8,1.4.6.4,1.4.2,1.8-.4.5-.7,1.1-.7,2.1.1,1.2,1,1.3.9.8-.5-.7-1.8-1-1.9-3.9-.7M724.5,1223c-.4.6,0,.7.9.4,1.7-.7,2-1.4.6-1.4s-1.2.4-1.6,1M1230.1,1227.6c0,1.2.3,1.4.6.6.3-.7.3-1.6,0-1.9s-.6.3-.5,1.3M706,1229.1c0,.6.5.8,1,.4s1-.8,1-1.1-.5-.4-1-.4-1,.5-1,1.1M712.6,1228.8c-.4.6-.2,1.3.4,1.7,1.5.9,2,.2,1-1.4-.5-.9-1-1-1.5-.3M379.6,1231.7c-1.1,1.1-.7,2.3.9,2.3s1.5-.4,1.5-.9c0-1.3-1.6-2.2-2.4-1.4M1443.1,1234.4c-.7.8-.8,1.6-.2,2,.5.3,1.2-.3,1.5-1.4.6-2.4.4-2.5-1.2-.6M1056,1236c0,.6.4,1,1,1s1-.4,1-1-.4-1-1-1-1,.4-1,1M1065.3,1236.5c0,.8.4,1.2.8.9.5-.3.6-.9.3-1.5-.8-1.3-1.1-1.2-1.1.5M1060.1,1240.9c-1.1.7-.9,1,.8,1.6,1.2.4,2.5.4,2.8.1.3-.3-.2-.6-1.1-.6s-1.4-.4-1.1-1c.8-1.2.4-1.2-1.4,0M1056.6,1243.5c-1,2.5-.7,3.2.5,1.1.6-1,.9-2,.6-2.3-.3-.3-.7.3-1.1,1.2M1049,1257.4c0,.8.4,1.7.9,2,.5.3.7-.3.4-1.4-.6-2.3-1.3-2.6-1.3-.6M397.7,1265.7c.3.7.9,1.1,1.4.8,1.4-.8,1.1-2.1-.5-2.1s-1.2.6-.9,1.3M1432.4,1266.4c0,1.4.3,2.3.7,2.1.4-.2.9.1,1.1.8.2.7.6.8,1,.2.3-.5-.2-2-1.1-3.3l-1.7-2.3v2.5M405,1279.4c0,.2.7.7,1.6,1,.9.3,1.3.2.9-.4-.6-1-2.5-1.4-2.5-.6M413,1288.4c0,.2.7.7,1.6,1,.9.3,1.3.2.9-.4-.6-1-2.5-1.4-2.5-.6M1425.5,1292c-.3.6-.1,1,.4,1s1.1-.4,1.1-1-.2-1-.4-1-.7.4-1.1,1M1024.6,1296.7c-.5,1.4-.4,1.5.6.6.7-.7,1-1.5.7-1.8-.3-.3-.9.2-1.2,1.2M421.5,1297c-.5.9-.4,1.1.3.6.6-.4,1.2-.3,1.2.3s-.5,1.1-1,1.3c-.6.2-.1.9,1,1.6,1.6,1,2,1,2,0s-.6-2.1-1.3-3.2c-1.1-1.4-1.5-1.6-2.2-.5M1416.3,1298.7c0,.9.5,1,1.8.3,1-.5,1.8-1.1,1.8-1.2s-.8-.2-1.8-.2-1.8.6-1.8,1.2M1016,1304.1c0,1.8.2,1.9,1.5.9.8-.7,1.5-1.6,1.5-2.1s-.7-.9-1.5-.9-1.5.9-1.5,2.1M430.3,1306.1c-.2,2.3.3,2.5,1.1.5.3-.8.2-1.7-.2-1.9-.4-.3-.8.4-.9,1.5M426.5,1306c.3.6.8,1,1.1,1s.4-.4.4-1-.5-1-1.1-1-.8.4-.4,1M1410.6,1305.9c-.4.7-.5,1.5-.2,1.9.9.9,1.9-.4,1.4-1.9-.3-1-.6-1-1.2,0M431,1314.4c0,.2.7.9,1.5,1.6,1.3,1.1,1.4,1,.9-.4-.5-1.4-2.4-2.4-2.4-1.3M437,1319.7c0,1.3,2.9,3.8,3.5,3.1s-.4-1.3-1.5-2.3c-1.1-1-2-1.4-2-.8M442.6,1321.2c.3.5.9.6,1.5.3,1.3-.8,1.2-1.1-.5-1.1s-1.2.4-.9.8M445.9,1321.8c-1.2,1.6-1.2,1.6.4.4,1-.8,1.8-1.5,1.8-1.8,0-.8-.8-.3-2.1,1.4M995,1323c0,.6.5,1,1.1,1s.8-.4.4-1-.8-1-1.1-1-.4.4-.4,1M450.7,1329.3c.4.6,0,.7-.9.4-1.7-.6-1.9,1.5-.3,3,.5.4.5.1,0-.6-.6-1.1-.4-1.3.9-.8,1,.4,1.5.3,1.1-.3-1.1-1.7.7-1.1,2.1.8,1.3,1.6,1.3,1.6.7-.2-.5-1.5-.3-1.7.7-1.1,1.1.7,1.2.5.2-.5-1.4-1.6-5.5-2.1-4.6-.6M994.6,1329.2c.3.5.9.6,1.5.3,1.3-.8,1.2-1.1-.5-1.1s-1.2.4-.9.8M1396.8,1329.7c.7.3,1.6.3,1.9,0s-.3-.6-1.3-.5c-1.2,0-1.4.3-.6.6M1397.9,1332.8c-1.2,1.6-1.2,1.6.4.4,1-.8,1.8-1.5,1.8-1.8,0-.8-.8-.3-2.1,1.4M459.2,1339.4c.7.8,1.7,1.2,2.1.9s.2-.9-.5-1.4c-2.1-1.3-3.1-1-1.6.5M465.3,1345.6c0,.9.4,1.1,1.2.4.6-.5,1.4-.9,1.6-.7.2.1.3,0,.1-.2-.7-1.1-2.9-.7-2.9.5M1378,1347c0,.6.4,1,1,1s1-.4,1-1-.4-1-1-1-1,.4-1,1M469,1350.6c0,.9.5,1.3,1,.9.6-.3.8-1,.4-1.6-.9-1.4-1.5-1.1-1.5.6M474,1352c0,1.1.4,2,.9,2s.7-.9.4-2c-.3-1.1-.7-2-.9-2s-.4.9-.4,2M964,1351.2c0,.9-.6,1.8-1.2,2.1-1,.4-1,.5,0,.6,1.4,0,2.8-2.7,1.8-3.6-.3-.3-.6,0-.6,1M478.3,1353.5c0,.8.4,1.2.9.9.5-.3.6-.9.3-1.5-.8-1.3-1.1-1.2-1.1.5M492,1361.4c0,.2.8,1,1.8,1.8,1.6,1.2,1.6,1.2.4-.4-1.3-1.7-2.1-2.2-2.1-1.4M952.9,1362.6c0,.5-.2,1.7-.4,2.6-.3,1.4,0,1.5,1.5.5,1-.6,1.5-1.4,1.2-1.7-.4-.3-1-1-1.5-1.5-.4-.5-.8-.5-.8,0M1361.6,1363.2c.3.5.9.8,1.5.8s.9-.4.9-.8-.7-.8-1.5-.8-1.2.4-.9.8M1230.6,1366.6c-.8,2.1-.8,2.4.2,2.4s.9-.9.9-2c.2-2.4-.3-2.6-1.1-.4M495.6,1368.8c-.3.5.1.8.9.8s1.2-.4.9-.8c-.3-.5-.7-.8-.9-.8s-.6.4-.9.8M1354.7,1369.1c.7.9.9,1.9.5,2.3s0,.4,1.1,0c1-.4,1.6-.7,1.5-.8-.2,0-1.2-.8-2.3-1.6-1.8-1.3-1.9-1.3-.8.1M500.8,1369.7c.7.3,1.6.3,1.9,0s-.3-.6-1.3-.5c-1.2,0-1.4.3-.6.6M1352.3,1371.1c-.2,2.3.3,2.5,1.1.5.3-.8.2-1.7-.2-1.9-.4-.3-.8.4-.9,1.5M1348,1371.5c-1,1.2-.9,1.5.3,1.5,1.9,0,3.1-1.6,1.8-2.4-.5-.3-1.5.1-2.1.9M928.7,1377.2c.7.8.9,1.8.5,2.2-.4.4.1.4,1.2,0,1.3-.5,1.7-.4,1.2.4-.5.8-.2.9.9.5.9-.3,1.5-.7,1.3-.8-.2,0-1.6-1-3.3-2.1-2.1-1.3-2.6-1.4-1.8-.4M525.2,1387.7c1.1.3,1.5,1.1,1.2,2.1-.4,1.4-.4,1.4.5.2,1.3-1.8.6-3.1-1.6-2.9-1.6.1-1.6.1,0,.6M1304.5,1393c-.3.6,0,.7.9.4,1.7-.7,2-1.4.6-1.4s-1.2.4-1.6,1M1312,1393c0,.6.7,1,1.6,1s1.3-.4.9-1-1-1-1.6-1-.9.4-.9,1M1305,1396.1c0,.6.4.8,1,.4s1-.8,1-1.1-.4-.4-1-.4-1,.5-1,1.1M889.1,1401.6c0,1.2.3,1.4.6.6.3-.7.3-1.6,0-1.9-.3-.3-.6.3-.5,1.3M1288.6,1401.3c.4,1,.9,1.5,1.2,1.2.3-.3,0-1.1-.7-1.8-1-1-1.1-.9-.6.6M1231.5,1409c.3.6.8,1,1.1,1s.4-.4.4-1-.5-1-1.1-1-.8.4-.4,1M1265.7,1409.1c.7.7,1.5,1,1.8.7.3-.3-.2-.9-1.2-1.2-1.4-.5-1.5-.4-.6.6M821.6,1426.3c.4,1,.9,1.5,1.2,1.2.3-.3,0-1.1-.7-1.8-1-1-1.1-.9-.6.6M637,1433c-.9.6-1,1-.3,1,.7,0,1.5-.4,1.8-1,.8-1.2.4-1.2-1.5,0M688.7,1441.1c.7.7,1.5,1,1.8.7.3-.3-.2-.9-1.2-1.2-1.4-.5-1.5-.4-.6.6"/>
</svg>